<svg width="2161" height="3835" viewBox="0 0 2161 3835" fill="none" xmlns="http://www.w3.org/2000/svg">
<g clip-path="url(#clip0_139_777)">
<circle cx="546.8" cy="1032.84" r="297.027" fill="url(#paint0_linear_139_777)" fill-opacity="0.1"/>
<circle cx="1714.66" cy="897.832" r="135.012" fill="url(#paint1_linear_139_777)" fill-opacity="0.1"/>
<circle cx="1404.13" cy="2983.77" r="216.02" fill="url(#paint2_linear_139_777)" fill-opacity="0.1"/>
<circle cx="459.042" cy="2828.51" r="303.778" fill="url(#paint3_linear_139_777)" fill-opacity="0.1"/>
<circle cx="1890.17" cy="2612.49" r="74.2568" fill="url(#paint4_linear_139_777)" fill-opacity="0.1"/>
<g clip-path="url(#clip1_139_777)">
<path d="M1684.09 3636.05C1684.09 3636.05 1712.97 3856.13 1698.36 4109.76L1898.29 4011.62C1898.29 4011.62 1910.6 3656.91 1910.31 3619.19L1843 3502.01L1684.09 3636.05Z" fill="#F9B98B"/>
<path d="M2199.65 2894.12L2346.3 2887.38C2403.39 2884.74 2458.65 2907.78 2497.01 2950.18L2670.88 3142.44C2670.88 3142.44 2585.77 3257.79 2489.58 3306.83L2374.79 3196.82L2625.82 3652.08L2089.17 3914.31L1921.42 3496.12L1925.37 3615.3C1925.37 3615.3 1729.68 3677.19 1662.9 3627.91L1641.55 3312.64C1637.79 3257.14 1658.39 3202.75 1697.95 3163.64L1861.68 2996.36L2038.27 3001.01L2155.06 2884.66L2199.65 2894.12Z" fill="#F0F2F2"/>
<path d="M1869.17 2988.75C1869.17 2988.75 1955.34 3009.21 2020.23 3010.21L1989.52 3135.69L1858.67 2997.89L1869.17 2988.75Z" fill="#020225"/>
<path d="M2152.02 2882.42L2200.41 2895.63L2145.95 3071.09L2039.8 3004.02C2039.8 3004.02 2132.75 2926.34 2152.02 2882.42Z" fill="#020225"/>
<path d="M2034.97 2771.67L1992.06 2687.51L1895.28 2854.25L1897.92 2858.02L1877.3 2870.99C1877.3 2870.99 1909.48 2934.12 1869.17 2988.75C1869.17 2988.75 2057.13 3097.44 2152.02 2882.42C2152.02 2882.42 2100.74 2885.84 2034.97 2771.67Z" fill="#F9B98A"/>
<path d="M1550.94 2431.41C1550.94 2431.41 1512.69 2943.25 1800.73 2921.39C1800.73 2921.39 1978.62 2898.87 2026.18 2613.3L1995.65 2375.12L1719.16 2330.5L1550.94 2431.41Z" fill="#F9B98A"/>
<path d="M2026.12 2219.45L2018.34 2189.34C1968.04 2207.52 1954.13 2236.47 1950.51 2254.25C1850.61 2148.2 1767.28 2213.18 1767.28 2213.18C1630.13 2233.87 1612.03 2042.37 1612.03 2042.37C1529.87 2148.64 1563.7 2229.86 1563.7 2229.86C1539.77 2257.21 1512.63 2163.11 1512.63 2163.11C1454.69 2279.75 1532.37 2372.7 1532.37 2372.7C1451.51 2451.8 1506.26 2507.21 1506.26 2507.21C1502.79 2448.38 1564.56 2435.83 1564.56 2435.83C1705.84 2556.95 1881.42 2433.35 1881.42 2433.35C1922.54 2770.29 2085.33 2747.89 2085.33 2747.89C2064.05 2728.44 2026.45 2550.67 2055.8 2444.82C2079.03 2360.98 2023.99 2309.92 2000.06 2292.32C1994.88 2288.48 1988.84 2286.14 1982.64 2284.45C1968.87 2280.76 1958.63 2266.85 1954.17 2259.73C1976.58 2218.54 2026.12 2219.45 2026.12 2219.45Z" fill="#40210C"/>
<path d="M1936.24 2689.45L1884.14 2587.25C1884.14 2587.25 1913.37 2466.3 1987.46 2485.34C1987.46 2485.34 2069.23 2533.03 2008.7 2642.97C1998 2662.4 1979.84 2676.62 1958.57 2682.88L1936.21 2689.47L1936.24 2689.45Z" fill="#F29050"/>
<path d="M1595.68 2556.3C1595.68 2556.3 1631.81 2545.46 1640.94 2555.95" stroke="#3E2108" stroke-width="23.6186" stroke-miterlimit="10" stroke-linecap="round"/>
<path d="M1769.02 2532.31C1769.02 2532.31 1805.15 2521.47 1814.29 2531.96" stroke="#3E2108" stroke-width="23.6186" stroke-miterlimit="10" stroke-linecap="round"/>
<path d="M1630.25 2635.26C1640.21 2630.18 1644.17 2617.99 1639.09 2608.03C1634.01 2598.06 1621.82 2594.11 1611.86 2599.18C1601.9 2604.26 1597.94 2616.45 1603.02 2626.42C1608.09 2636.38 1620.29 2640.33 1630.25 2635.26Z" fill="#180B05"/>
<path d="M1811.93 2616.48C1821.89 2611.4 1825.85 2599.21 1820.77 2589.25C1815.69 2579.29 1803.5 2575.33 1793.54 2580.41C1783.58 2585.49 1779.62 2597.68 1784.7 2607.64C1789.78 2617.6 1801.97 2621.56 1811.93 2616.48Z" fill="#180B05"/>
<path d="M1651.18 2669.49C1649.74 2658.4 1633.59 2651.36 1615.11 2653.76C1596.63 2656.15 1582.82 2667.09 1584.26 2678.17C1585.7 2689.26 1601.84 2696.31 1620.32 2693.91C1638.8 2691.51 1652.62 2680.58 1651.18 2669.49Z" fill="#F28C50"/>
<path d="M1854.7 2645.27C1853.27 2634.18 1837.12 2627.14 1818.64 2629.53C1800.16 2631.93 1786.35 2642.86 1787.78 2653.95C1789.22 2665.04 1805.37 2672.08 1823.85 2669.69C1842.33 2667.29 1856.14 2656.36 1854.7 2645.27Z" fill="#F28C50"/>
<path d="M1704.54 2584.12L1704.36 2754.64L1761.48 2725.52L1704.54 2584.12Z" fill="#F29050"/>
<path d="M1712.56 2837.57C1712.56 2837.57 1807.28 2793.07 1827.96 2737.08C1827.96 2737.08 1879.95 2824.19 1815.53 2883.54C1815.53 2883.54 1750.87 2912.72 1712.56 2837.57Z" fill="white"/>
<path d="M2055.3 3056.71C2060.28 3054.17 2062.26 3048.08 2059.72 3043.1C2057.18 3038.12 2051.09 3036.14 2046.11 3038.68C2041.13 3041.22 2039.15 3047.31 2041.69 3052.29C2044.23 3057.27 2050.32 3059.25 2055.3 3056.71Z" fill="#020225"/>
<path d="M2089.02 3122.85C2094 3120.31 2095.98 3114.21 2093.44 3109.23C2090.9 3104.25 2084.8 3102.27 2079.82 3104.81C2074.84 3107.35 2072.86 3113.44 2075.4 3118.42C2077.94 3123.4 2084.04 3125.38 2089.02 3122.85Z" fill="#020225"/>
<path d="M2113.59 3178.49C2118.58 3175.95 2120.55 3169.85 2118.02 3164.87C2115.48 3159.89 2109.38 3157.91 2104.4 3160.45C2099.42 3162.99 2097.44 3169.08 2099.98 3174.06C2102.52 3179.05 2108.61 3181.02 2113.59 3178.49Z" fill="#020225"/>
<path d="M2147.31 3244.62C2152.29 3242.08 2154.27 3235.98 2151.73 3231C2149.19 3226.02 2143.1 3224.04 2138.11 3226.58C2133.13 3229.12 2131.16 3235.22 2133.69 3240.2C2136.23 3245.18 2142.33 3247.16 2147.31 3244.62Z" fill="#020225"/>
<path d="M2177.96 3304.74C2182.94 3302.2 2184.92 3296.1 2182.38 3291.12C2179.84 3286.14 2173.74 3284.16 2168.76 3286.7C2163.78 3289.24 2161.8 3295.34 2164.34 3300.32C2166.88 3305.3 2172.98 3307.28 2177.96 3304.74Z" fill="#020225"/>
<path d="M2013.48 3015.54L2369.34 3754.43" stroke="#010225" stroke-width="3.37409" stroke-miterlimit="10"/>
<path d="M2054.92 3007.67L2418.23 3735.18" stroke="#010225" stroke-width="3.37409" stroke-miterlimit="10"/>
<path d="M1925.37 3615.3C1925.37 3615.3 1737.99 3678.63 1662.9 3627.91L1661.85 3603.49C1661.85 3603.49 1737.62 3648.56 1924.36 3591.19L1925.35 3615.27L1925.37 3615.3Z" fill="#010225"/>
<path d="M1953.5 3063.17L1767.12 3158.18L1941.83 3500.86L2128.2 3405.85L1953.5 3063.17Z" fill="#626766"/>
<path d="M1893.11 3059.87L1799.92 3107.37L1818.31 3143.45L1911.5 3095.94L1893.11 3059.87Z" fill="#979797"/>
<path d="M2748.98 3577.93L2100.22 3397.39L1907.6 3272.14L1951.98 3158.62L2047.64 3234.83L2022.94 3164.1L2048.46 3147.31L2121.11 3271.23L2645.39 3356.16L2748.98 3577.93Z" fill="#F9B98B"/>
</g>
</g>
<defs>
<linearGradient id="paint0_linear_139_777" x1="673.037" y1="832.351" x2="249.773" y2="1329.87" gradientUnits="userSpaceOnUse">
<stop stop-color="#F5F7F8"/>
<stop offset="1" stop-color="#F5F7F8" stop-opacity="0"/>
</linearGradient>
<linearGradient id="paint1_linear_139_777" x1="1772.04" y1="806.698" x2="1579.64" y2="1032.84" gradientUnits="userSpaceOnUse">
<stop stop-color="#F5F7F8"/>
<stop offset="1" stop-color="#F5F7F8" stop-opacity="0"/>
</linearGradient>
<linearGradient id="paint2_linear_139_777" x1="1495.94" y1="2837.96" x2="1188.11" y2="3199.79" gradientUnits="userSpaceOnUse">
<stop stop-color="#F5F7F8"/>
<stop offset="1" stop-color="#F5F7F8" stop-opacity="0"/>
</linearGradient>
<linearGradient id="paint3_linear_139_777" x1="588.147" y1="2623.46" x2="155.264" y2="3132.29" gradientUnits="userSpaceOnUse">
<stop stop-color="#F5F7F8"/>
<stop offset="1" stop-color="#F5F7F8" stop-opacity="0"/>
</linearGradient>
<linearGradient id="paint4_linear_139_777" x1="1921.73" y1="2562.37" x2="1815.92" y2="2686.75" gradientUnits="userSpaceOnUse">
<stop stop-color="#F5F7F8"/>
<stop offset="1" stop-color="#F5F7F8" stop-opacity="0"/>
</linearGradient>
<clipPath id="clip0_139_777">
<rect width="2160.2" height="3834.35" fill="white"/>
</clipPath>
<clipPath id="clip1_139_777">
<rect width="1331.86" height="1913.31" fill="white" transform="translate(844 2433.92) rotate(-27.0129)"/>
</clipPath>
</defs>
</svg>
