<svg width="609" height="508" viewBox="0 0 609 508" fill="none" xmlns="http://www.w3.org/2000/svg">
<path d="M87.8873 216.338C87.8873 197.669 103.021 182.535 121.69 182.535H141.972C160.641 182.535 175.775 197.669 175.775 216.338V507.042H87.8873V216.338Z" fill="#00086E"/>
<path d="M196.057 283.943C196.057 265.275 211.191 250.141 229.859 250.141H250.141C268.81 250.141 283.944 265.275 283.944 283.943V507.042H196.057V283.943Z" fill="#00086E"/>
<mask id="mask0_112_3486" style="mask-type:alpha" maskUnits="userSpaceOnUse" x="0" y="0" width="508" height="508">
<rect width="507.042" height="507.042" rx="101.408" fill="white"/>
</mask>
<g mask="url(#mask0_112_3486)">
<circle cx="507.042" cy="277.183" r="209.577" fill="#4769E7"/>
<circle cx="338.028" cy="175.774" r="81.1268" fill="#80AAFE"/>
</g>
<path fill-rule="evenodd" clip-rule="evenodd" d="M162.254 229.859C158.52 229.859 155.493 232.886 155.493 236.619C155.493 240.353 158.52 243.38 162.254 243.38H175.775C179.508 243.38 182.535 240.353 182.535 236.619C182.535 232.886 179.508 229.859 175.775 229.859H162.254ZM155.493 256.901C151.759 256.901 148.733 259.928 148.733 263.662C148.733 267.396 151.759 270.422 155.493 270.422H175.775C179.509 270.422 182.535 267.396 182.535 263.662C182.535 259.928 179.509 256.901 175.775 256.901H155.493ZM155.493 290.704C155.493 286.97 158.52 283.943 162.254 283.943H175.775C179.508 283.943 182.535 286.97 182.535 290.704C182.535 294.438 179.508 297.464 175.775 297.464H162.254C158.52 297.464 155.493 294.438 155.493 290.704ZM162.254 310.986C158.52 310.986 155.493 314.013 155.493 317.747C155.493 321.481 158.52 324.507 162.254 324.507H175.775C179.508 324.507 182.535 321.481 182.535 317.747C182.535 314.013 179.508 310.986 175.775 310.986H162.254ZM148.733 344.789C148.733 341.055 151.759 338.028 155.493 338.028H175.775C179.509 338.028 182.535 341.055 182.535 344.789C182.535 348.523 179.509 351.549 175.775 351.549H155.493C151.759 351.549 148.733 348.523 148.733 344.789ZM155.493 392.113C151.759 392.113 148.733 395.14 148.733 398.873C148.733 402.607 151.759 405.634 155.493 405.634H175.775C179.509 405.634 182.535 402.607 182.535 398.873C182.535 395.14 179.509 392.113 175.775 392.113H155.493ZM155.493 452.958C155.493 449.224 158.52 446.197 162.254 446.197H175.775C179.508 446.197 182.535 449.224 182.535 452.958C182.535 456.691 179.508 459.718 175.775 459.718H162.254C158.52 459.718 155.493 456.691 155.493 452.958ZM162.254 419.155C158.52 419.155 155.493 422.182 155.493 425.915C155.493 429.649 158.52 432.676 162.254 432.676H175.775C179.508 432.676 182.535 429.649 182.535 425.915C182.535 422.182 179.508 419.155 175.775 419.155H162.254ZM155.493 371.831C155.493 368.097 158.52 365.07 162.254 365.07H175.775C179.508 365.07 182.535 368.097 182.535 371.831C182.535 375.565 179.508 378.591 175.775 378.591H162.254C158.52 378.591 155.493 375.565 155.493 371.831ZM155.493 473.24C151.759 473.24 148.733 476.266 148.733 480C148.733 483.734 151.759 486.761 155.493 486.761H175.775C179.509 486.761 182.535 483.734 182.535 480C182.535 476.266 179.509 473.24 175.775 473.24H155.493Z" fill="white"/>
</svg>
