<svg width="469" height="419" viewBox="0 0 469 419" fill="none" xmlns="http://www.w3.org/2000/svg">
<path d="M456.118 159.726L454.471 262.431L190.829 414.647L192.476 311.942L456.118 159.726Z" fill="#47CDFB"/>
<path d="M206.768 311.99L224.547 301.72C230.361 322.261 229.392 371.579 224.935 386.694L207.107 397.255C211.515 381.849 212.533 332.58 206.768 311.99Z" fill="#B3EAFD"/>
<path d="M370.708 218.78L445.702 175.615C451.516 196.156 450.547 245.426 446.09 260.589L371.047 303.803C375.456 288.591 376.473 239.37 370.708 218.78Z" fill="#B3EAFD"/>
<path d="M193.348 319.985L191.652 409.028L1.16357 297.021L25.4349 283.021L193.348 319.985Z" fill="#45CCFB"/>
<path d="M187.873 398.127L9.83496 223.432L200.954 113.073L190.489 312.427L194.753 378.168L187.873 398.127Z" fill="#26C4FA"/>
<path d="M190.344 314.897C184.967 323.569 182.496 383.303 187.874 398.176C150.183 376.472 46.9932 314.897 9.68994 292.951V214.711C46.9932 236.367 152.847 293.145 190.344 314.897Z" fill="#F8FDFF"/>
<path d="M190.054 404.426V415.084L4.21576 307.776C2.95633 306.915 1.91814 305.768 1.18572 304.43C0.453306 303.091 0.047373 301.598 0.000976562 300.073C0.000976563 297.07 1.89036 295.81 4.21576 297.167L190.054 404.426Z" fill="#79DAFC"/>
<path d="M191.701 311.313V321.922L5.91118 214.663C4.64278 213.807 3.59518 212.663 2.85416 211.324C2.11315 209.985 1.69979 208.49 1.64795 206.96C1.64795 203.908 3.53733 202.649 5.91118 204.005L191.701 311.313Z" fill="#79DAFC"/>
<path d="M191.701 311.313C201.39 340.138 199.937 397.595 190.054 415.084L182.835 410.918C192.525 393.429 194.366 335.972 184.531 307.147L191.701 311.313Z" fill="#79DAFC"/>
<path d="M456.069 161.033C465.758 190.101 463.868 245.232 453.986 262.769L446.767 258.603C456.456 241.163 458.733 185.934 448.85 156.867L456.069 161.033Z" fill="#47CDFB"/>
<path d="M266.55 51.5942L456.07 161.033L192.477 313.25L2.9082 203.811L266.55 51.5942Z" fill="#26C4FA"/>
<path d="M286.364 336.02C287.743 346.504 290.161 356.826 293.582 366.831C297.7 375.455 308.552 380.881 312.186 389.02C315.819 397.159 323.522 412.128 315.819 417.118C308.116 422.108 284.765 416.634 274.204 404.861C263.643 393.089 264.224 346.726 264.224 346.726C264.052 344.687 264.366 342.635 265.14 340.74C265.915 338.845 267.129 337.161 268.681 335.826C274.107 331.03 280.987 325.12 286.364 336.02Z" fill="#E8F8FD"/>
<path d="M286.364 331.321C287.738 341.806 290.156 352.128 293.582 362.132C297.7 370.755 308.552 376.181 312.186 384.32C315.819 392.459 323.522 407.429 315.819 412.419C308.116 417.409 284.765 411.789 274.204 400.21C263.643 388.632 264.224 342.076 264.224 342.076C264.052 340.036 264.366 337.984 265.14 336.089C265.915 334.194 267.129 332.51 268.681 331.175C274.107 326.331 280.987 320.469 286.364 331.321Z" fill="#4769E7"/>
<path d="M200.228 121.114C216.07 110.117 242.23 140.008 242.23 140.008C242.23 140.008 274.205 155.026 280.987 179.249C287.769 203.472 311.12 245.959 303.902 280.985C296.683 316.011 292.953 318.337 292.13 328.317C291.631 332.674 291.469 337.063 291.645 341.446C291.645 341.446 295.375 349.584 281.326 350.02C267.277 350.456 255.505 333.258 255.505 333.258C252.439 327.92 251.521 321.615 252.937 315.624C255.505 305.935 249.982 301.09 252.937 294.744C253.817 292.973 254.327 291.042 254.436 289.068C254.544 287.094 254.248 285.118 253.567 283.262C253.567 283.262 229.974 243.391 208.851 211.417C200.034 198.094 190.636 191.167 187.971 182.35C180.22 156.916 184.386 131.869 200.228 121.114Z" fill="#00086E"/>
<path d="M201.293 130.416C201.293 130.416 193.542 151.732 195.674 164.328C197.805 176.923 266.162 263.641 264.128 270.908C262.093 278.175 256.764 293.581 258.653 300.799C259.923 307.178 260.508 313.675 260.397 320.178C260.397 323.084 258.944 337.667 258.944 337.667L262.044 335.874C264.76 330.328 265.495 324.019 264.128 317.998C262.044 307.291 259.283 300.315 261.318 299.104C263.352 297.893 267.228 269.31 267.228 269.31C267.228 269.31 199.065 172.418 198.241 167.041C196.473 154.759 197.517 142.235 201.293 130.416Z" fill="#DEF6FF"/>
<path d="M347.309 258.265C347.309 258.265 336.021 265.047 331.467 265.047C328.948 264.746 326.395 265.137 324.081 266.178C321.768 267.22 319.782 268.872 318.338 270.958C314.705 276.384 317.757 287.72 328.463 296.779C336.502 302.905 342.017 311.764 343.966 321.68C346.679 331.37 358.015 337.571 373.857 342.512C389.699 347.454 387.422 326.67 385.629 319.403C383.837 312.137 370.224 304.046 370.224 304.046L360.873 279.823L347.309 258.265Z" fill="#E8F8FD"/>
<path d="M352.008 258.265C352.008 258.265 340.72 265.047 336.166 265.047C333.646 264.735 331.089 265.121 328.774 266.163C326.458 267.206 324.474 268.864 323.037 270.958C319.404 276.384 322.456 287.72 333.162 296.779C341.099 302.948 346.509 311.803 348.374 321.68C351.087 331.37 362.424 337.571 378.314 342.512C394.204 347.454 391.879 326.67 390.086 319.403C388.294 312.137 374.681 304.046 374.681 304.046L365.331 279.823L352.008 258.265Z" fill="#4769E7"/>
<path d="M291.644 88.2201C291.644 88.2201 343.965 109.197 361.987 120.533C380.009 131.87 429.472 166.266 433.59 177.167C437.708 188.067 435.383 201.389 420.897 215.196C406.412 229.004 382.141 251.918 374.68 263.255C367.219 274.591 367.413 279.096 367.413 279.096C367.413 279.096 352.88 286.363 347.502 273.671C342.125 260.978 345.661 260.978 345.661 260.978C345.661 260.978 356.271 222.221 358.354 212.048C360.039 205.659 364.092 200.151 369.69 196.642C369.69 196.642 330.934 189.084 315.77 184.676C304.361 181.175 292.743 178.392 280.986 176.343C278.273 176.343 273.768 175.955 267.227 176.343C260.687 176.731 221.543 164.716 221.543 164.716C221.543 164.716 235.786 78.1434 291.644 88.2201Z" fill="#00086E"/>
<path d="M275.076 141.414C298.62 147.873 322.004 154.704 345.225 161.906C356.804 165.636 368.382 169.415 379.912 173.388C385.677 175.374 391.442 177.36 397.111 179.734C398.564 180.364 399.969 180.945 401.422 181.672C402.168 182.023 402.896 182.411 403.602 182.835C404.158 183.187 404.636 183.648 405.007 184.191L405.25 184.627C405.344 185.009 405.344 185.408 405.25 185.79C405.25 186.274 404.959 186.468 405.25 186.371C404.851 187.576 404.799 188.869 405.099 190.102C405.398 191.335 406.038 192.46 406.945 193.347L407.914 194.559L406.8 195.624L401.955 200.469C396.081 204.696 390.702 209.572 385.92 215.003C380.899 220.439 376.571 226.476 373.033 232.976C366.057 245.895 359.484 258.943 353.316 272.12C358.742 258.555 364.313 244.991 371.047 231.959C377.532 218.52 387.213 206.876 399.242 198.047L404.087 193.202V195.479C402.991 194.127 402.124 192.605 401.519 190.974C400.771 189.142 400.771 187.089 401.519 185.257C402.73 186.662 401.083 185.257 399.775 184.724C398.467 184.191 397.111 183.513 395.706 182.98C390.086 180.752 384.369 178.668 378.701 176.585C367.22 172.516 355.689 168.64 344.159 164.813L275.076 141.414Z" fill="#DEF6FF"/>
<path d="M303.95 101.202C303.95 101.202 297.942 122.954 297.361 123.826C295.052 130.21 291.233 135.941 286.231 140.53C281.229 145.118 275.191 148.43 268.633 150.181C246.59 155.607 228.18 157.109 216.408 152.264C206.795 147.418 197.947 141.182 190.15 133.758V80.4675L291.644 96.8906L303.95 101.202Z" fill="#80AAFE"/>
<path d="M378.314 62.059L384.031 100.816C384.031 100.816 396.869 109.487 395.948 132.451C393.381 196.787 398.903 201.341 398.903 201.341C398.903 201.341 389.214 219.75 380.639 219.459C372.065 219.169 381.996 196.157 381.996 196.157C378.757 184.773 374.323 173.763 368.77 163.311C361.067 150.182 352.444 137.489 353.364 125.281C354.285 113.072 354.285 104.885 354.285 104.885C354.285 104.885 339.315 74.6549 341.592 70.973C343.869 67.2911 354.769 38.7565 378.314 62.059Z" fill="#4769E7"/>
<path d="M352.007 25.3858C350.021 22.7698 312.136 -2.71271 282.245 2.71321C252.354 8.13914 218.781 31.7322 208.85 43.6014C198.919 55.4707 188.89 71.2155 190.247 80.2749C190.666 82.9154 191.627 85.4406 193.069 87.6917C194.512 89.9428 196.404 91.8711 198.628 93.3553C198.628 93.3553 186.565 78.8215 208.317 78.8215C230.069 78.8215 213.791 140.445 247.074 132.112C280.356 123.779 277.449 118.499 288.786 111.716C300.122 104.934 305.063 118.935 324.103 87.4933C343.142 56.052 375.116 55.7129 352.007 25.3858Z" fill="#80AAFE"/>
<path d="M308.503 46.9442C308.503 46.9442 316.642 30.9086 297.119 27.2268C277.595 23.5449 268.972 31.5384 263.497 42.3418C258.023 53.1452 258.653 93.3553 282.876 91.4174C307.099 89.4796 308.503 46.9442 308.503 46.9442Z" fill="#00086E"/>
<path d="M298.33 30.9089C298.33 30.9089 280.986 29.068 277.498 32.0716C273.542 35.0575 270.357 38.9456 268.208 43.4119C266.059 47.8782 265.009 52.7934 265.144 57.7479C265.92 71.7972 267.857 80.3721 271.249 82.649C273.504 84.2874 276.094 85.4063 278.833 85.9256C281.572 86.4449 284.392 86.3517 287.09 85.6527C293.243 83.618 303.95 88.2203 303.95 88.2203L298.33 30.9089Z" fill="#4769E7"/>
<path d="M317.902 50.7222L374.68 72.6681C374.686 76.0605 373.818 79.3972 372.161 82.3573C370.125 84.6566 367.738 86.6187 365.088 88.1708L360.243 103.383C357.693 103.359 355.222 102.49 353.219 100.912C352.201 100.379 347.744 104.594 345.516 104.206C343.287 103.819 342.367 109.051 338.976 109.051C333.015 108.08 327.264 106.097 321.971 103.189C314.983 99.0051 308.649 93.8141 303.174 87.7832C301.269 83.586 300.309 79.0212 300.364 74.4122C300.364 74.4122 291.305 61.5256 291.644 61.1865C291.983 60.8473 317.902 50.7222 317.902 50.7222Z" fill="#DEF6FF"/>
<path d="M308.504 74.9941C308.587 73.374 308.165 71.7681 307.298 70.3973C306.43 69.0266 305.159 67.9584 303.66 67.3396C298.815 64.772 293.05 63.6577 292.033 69.7619C291.015 75.8661 299.493 82.0187 301.722 82.4547C303.95 82.8907 305.016 82.4547 305.016 82.4547L308.504 74.9941Z" fill="#DEF6FF"/>
<path d="M335.245 0C335.245 0 363.78 4.5539 371.967 30.8115C380.155 57.0691 376.037 66.2254 381.656 67.3396C387.276 68.4539 380.784 78.1915 365.379 81.2436C349.973 84.2957 332.29 87.2508 322.31 81.2436C312.331 75.2363 310.054 73.3954 310.054 73.3954C310.054 73.3954 303.465 61.4292 299.008 62.9795C296.503 63.7632 294.292 65.2824 292.662 67.3396C292.662 67.3396 278.903 40.1615 288.447 26.5483C297.991 12.935 298.087 2.27695 335.245 0Z" fill="#00086E"/>
<path d="M247.074 127.752C243.697 138.965 241.251 150.437 239.759 162.051C239.041 171.252 239.793 180.508 241.987 189.472C241.987 189.472 255.746 187.582 275.124 199.161C294.502 210.739 302.496 215.051 308.552 218.539C316.527 222.173 324.751 225.233 333.162 227.695C333.162 227.695 341.592 240.388 330.255 245.378C318.919 250.368 235.495 221.833 224.304 218.006C212.048 213.646 214.615 204.151 208.027 188.939C201.438 173.727 198.337 134.679 198.337 130.222C198.337 125.765 247.074 127.752 247.074 127.752Z" fill="#4769E7"/>
<path d="M228.326 67.3401C228.326 67.3401 204.103 67.3401 198.242 77.0292C192.38 86.7184 198.242 129.884 198.242 129.884C198.242 129.884 205.799 154.639 220.914 152.217C228.47 151.437 235.755 148.971 242.23 144.999C242.23 144.999 257.636 121.406 251.29 103.626C244.943 85.8464 253.567 70.586 228.326 67.3401Z" fill="#80AAFE"/>
<path d="M309.085 240.292C309.085 240.292 309.666 238.402 310.974 239.468L364.749 284.087H360.728L309.327 241.115C308.988 241.115 308.891 240.728 309.085 240.292Z" fill="#1F9FF7"/>
<path d="M313.542 237.385C313.881 236.61 314.268 235.835 314.656 235.06C315.043 234.285 315.189 234.042 315.479 233.509C317.264 230.326 319.238 227.252 321.39 224.305L322.165 223.19C323.548 221.349 325.071 219.616 326.719 218.007L361.067 236.804L405.589 188.794L406.461 189.278L407.042 189.763L407.478 190.199L408.641 191.41L409.174 192.04L409.658 192.67L409.997 193.154L410.336 193.59L410.772 194.317L411.111 194.85L412.226 197.03L412.516 197.805L413.001 199.161V199.791V200.76C413.011 200.975 412.967 201.19 412.874 201.384C412.781 201.578 412.642 201.747 412.468 201.874L367.413 236.561V236.901C364.708 236.47 361.938 236.732 359.362 237.664C356.786 238.597 354.489 240.167 352.686 242.23C352.153 242.23 313.929 238.79 313.929 238.79C313.81 238.724 313.705 238.636 313.621 238.529C313.537 238.423 313.475 238.3 313.439 238.169C313.403 238.038 313.393 237.901 313.411 237.767C313.429 237.632 313.473 237.502 313.542 237.385Z" fill="#EFF8FE"/>
<path d="M412.516 197.61C401.664 206.427 369.545 233.169 367.752 234.622L412.274 197.029C412.375 197.213 412.457 197.408 412.516 197.61Z" fill="#7CCDF6"/>
<path d="M364.798 233.993L408.399 191.215L408.932 191.845L364.798 233.993Z" fill="#7CCDF6"/>
<path d="M309.085 240.291C309.757 239.597 310.543 239.023 311.41 238.596C312.427 238.256 317.078 237.53 317.224 237.53L352.444 242.084C352.783 242.084 352.88 242.52 352.444 242.907L407.623 194.801L467.987 243.246L418.911 279.968L414.067 284.474L408.253 287.09C408.253 287.09 376.473 284.813 364.991 284.086H360.97L309.327 241.115C308.988 241.115 308.891 240.727 309.085 240.291Z" fill="#00086E"/>
<path d="M368.189 237.384L413.728 202.746C413.904 202.633 414.047 202.474 414.141 202.286C414.235 202.099 414.276 201.889 414.26 201.68C414.26 201.341 413.824 201.341 413.437 201.68L367.704 236.464C367.527 236.577 367.385 236.736 367.291 236.923C367.197 237.111 367.156 237.321 367.171 237.53C367.268 237.869 367.656 237.869 368.189 237.384Z" fill="#9EDAF8"/>
<path d="M352.493 242.228C356.417 243.875 362.182 241.647 367.511 236.657L368.189 237.384C362.521 242.906 355.884 245.377 351.476 243.536L352.493 242.228Z" fill="#9EDAF8"/>
<path d="M361.068 236.61L405.589 188.6L406.461 189.084L407.043 189.569L407.479 190.005L408.641 191.216L409.174 191.846C409.324 192.064 409.486 192.275 409.659 192.476L409.998 192.96L410.337 193.396L410.773 194.123L411.112 194.656C411.522 195.362 411.894 196.09 412.226 196.836C412.226 197.223 412.226 197.417 412.517 197.611C412.808 197.805 413.002 198.967 413.002 198.967V199.597V200.566C413.011 200.781 412.968 200.996 412.875 201.19C412.782 201.384 412.642 201.553 412.469 201.68L366.881 236.319C366.3 236.319 366.106 236.319 366.009 236.319C365.912 236.319 361.019 236.9 361.068 236.61Z" fill="#E4E1E0"/>
<path d="M412.516 197.61C401.664 206.427 369.545 233.169 367.752 234.622L412.274 197.029C412.375 197.213 412.457 197.408 412.516 197.61Z" fill="#7CCDF6"/>
<path d="M364.798 233.993L408.399 191.215L408.932 191.845L364.798 233.993Z" fill="#7CCDF6"/>
<path d="M364.555 281.325L313.348 238.838L326.719 217.813L377.829 260.203L364.555 281.325Z" fill="#EFF8FE"/>
<path d="M364.75 280.016C365.082 279.223 365.454 278.447 365.864 277.691L366.688 276.141C368.466 272.953 370.44 269.879 372.598 266.936L373.374 265.822C374.767 263.864 376.271 261.988 377.879 260.202L411.791 278.078L456.797 231.038C457.087 231.172 457.363 231.334 457.621 231.522C457.832 231.661 458.027 231.824 458.202 232.007L458.687 232.491C459.102 232.867 459.49 233.272 459.849 233.702L460.382 234.332L460.867 234.962L461.206 235.398L461.496 235.882C461.681 236.108 461.843 236.352 461.981 236.609C462.077 236.781 462.191 236.944 462.32 237.093L463.434 239.322L463.725 240.049C463.725 240.775 464.209 241.405 464.209 241.405V242.035C464.209 242.374 464.209 243.052 464.209 243.052C464.225 243.261 464.184 243.471 464.09 243.659C463.996 243.846 463.853 244.005 463.676 244.118L418.67 278.805V279.193C415.93 278.748 413.121 279.019 410.515 279.978C407.91 280.937 405.596 282.552 403.798 284.667C403.265 284.667 364.75 281.227 364.75 281.227C364.633 281.047 364.571 280.837 364.571 280.622C364.571 280.407 364.633 280.197 364.75 280.016Z" fill="white"/>
<path d="M463.724 240.048C452.824 248.914 420.752 275.607 418.96 277.109L463.482 239.467V240.048H463.724Z" fill="#7CCDF6"/>
<path d="M415.958 276.432L459.849 233.702L460.382 234.332L415.958 276.432Z" fill="#7CCDF6"/>
<path d="M419.494 280.986L467.6 244.409C467.988 244.07 468.279 243.585 468.182 243.246C468.085 242.907 467.649 242.907 467.261 243.246L419.155 279.823C418.965 279.949 418.811 280.123 418.709 280.327C418.607 280.531 418.561 280.758 418.573 280.986C418.67 281.276 419.106 281.276 419.494 280.986Z" fill="#9EDAF8"/>
<path d="M402.1 287.379L360.776 283.94C360.437 283.94 360.34 283.504 360.776 283.068C361.212 282.632 361.454 282.244 361.793 282.293L403.069 285.829C403.408 285.829 403.505 286.265 403.069 286.701C402.966 286.878 402.827 287.03 402.659 287.147C402.492 287.264 402.301 287.344 402.1 287.379Z" fill="#9EDAF8"/>
<path d="M403.118 285.83C407.284 287.526 413.582 285.2 418.911 279.968L419.59 280.937C413.679 286.799 406.606 289.415 402.004 287.477L403.118 285.83Z" fill="#9EDAF8"/>
<path d="M411.79 278.078L456.796 231.038C457.086 231.172 457.361 231.334 457.619 231.522C457.831 231.661 458.026 231.824 458.201 232.007L458.685 232.491C459.1 232.867 459.489 233.272 459.848 233.702L460.381 234.332C460.554 234.533 460.715 234.743 460.865 234.962L461.204 235.398L461.495 235.882C461.68 236.108 461.842 236.352 461.979 236.609C462.076 236.781 462.19 236.944 462.318 237.093C462.728 237.816 463.1 238.56 463.433 239.322L463.723 240.049C463.723 240.775 464.208 241.405 464.208 241.405V242.035C464.208 242.374 464.208 243.052 464.208 243.052C464.223 243.261 464.182 243.471 464.088 243.659C463.995 243.846 463.852 244.005 463.675 244.118L418.136 278.757C417.555 279.047 417.312 278.757 417.264 278.757C417.215 278.757 411.79 278.369 411.79 278.078Z" fill="white"/>
<path d="M463.724 240.048C452.824 248.914 420.752 275.607 418.96 277.109L463.482 239.467V240.048H463.724Z" fill="#EFF8FE"/>
<path d="M415.958 276.432L459.849 233.702L460.382 234.332L415.958 276.432Z" fill="#EFF8FE"/>
<path d="M365.864 277.69L366.687 276.14L403.555 283.455C403.07 283.359 375.165 278.95 365.864 277.69Z" fill="#EFF8FE"/>
<path d="M372.597 266.937L373.372 265.823L406.17 280.986L372.597 266.937Z" fill="#EFF8FE"/>
<path d="M459.848 233.703L405.589 188.6L397.789 197.029L361.067 236.61L411.79 278.079L459.848 233.703Z" fill="#EFF8FE"/>
<path d="M411.79 278.08L361.067 236.61L326.719 217.813L377.83 260.203L411.79 278.08Z" fill="#E9EAE8"/>
<path d="M314.898 235.253C314.898 234.72 315.431 234.235 315.722 233.702L366.687 276.141L365.863 277.691C365.33 277.643 320.179 239.855 314.898 235.253Z" fill="#E9EAE8"/>
<path d="M321.391 224.497L322.166 223.383L373.373 265.821L372.598 266.936L321.391 224.497Z" fill="#E9EAE8"/>
<path d="M393.284 201.535L388.439 206.671C388.583 211.037 388.421 215.408 387.955 219.751C387.131 223.966 388.439 226.921 385.193 229.779C381.947 232.638 379.138 228.471 379.138 228.471C379.138 228.471 380.3 227.696 379.767 222.852C379.235 218.007 376.425 209.481 378.314 205.605C380.203 201.729 381.318 201.778 382.044 198.823C384.951 187.583 393.284 201.535 393.284 201.535Z" fill="#4769E7"/>
</svg>
