<svg width="89" height="89" viewBox="0 0 89 89" fill="none" xmlns="http://www.w3.org/2000/svg">
<path fill-rule="evenodd" clip-rule="evenodd" d="M42.7987 8.90396C43.8114 8.76997 44.8373 8.76997 45.85 8.90396C50.7502 9.55229 54.412 13.7305 54.412 18.6733V21.8789C59.9839 24.3661 64.4659 28.8481 66.9531 34.4201H70.1586C75.1016 34.4201 79.2797 38.0819 79.9281 42.9821C80.0621 43.9948 80.0621 45.0207 79.9281 46.0334C79.2797 50.9336 75.1016 54.5953 70.1587 54.5953H66.9531C64.4659 60.1673 59.9839 64.6493 54.412 67.1365V70.342C54.412 75.2849 50.7502 79.4631 45.85 80.1114C44.8373 80.2454 43.8114 80.2454 42.7987 80.1114C37.8985 79.4631 34.2367 75.2849 34.2367 70.342V67.1365C28.6648 64.6493 24.1828 60.1673 21.6956 54.5953H18.49C13.5471 54.5953 9.36894 50.9336 8.72061 46.0334C8.58662 45.0207 8.58662 43.9948 8.72061 42.9821L11.442 43.3421L8.72061 42.9821C9.36894 38.0819 13.5471 34.4201 18.49 34.4201H21.6956C24.1828 28.8481 28.6648 24.3661 34.2367 21.8789V18.6734C34.2367 13.7305 37.8985 9.55229 42.7987 8.90396ZM45.1295 14.3495C44.5951 14.2787 44.0537 14.2787 43.5192 14.3495C41.3504 14.6364 39.7297 16.4857 39.7297 18.6734V23.7374C39.7297 24.9014 38.9959 25.939 37.8985 26.3269C32.4231 28.2622 28.0788 32.6064 26.1436 38.0818C25.7557 39.1793 24.7181 39.913 23.5541 39.913H18.49C16.3023 39.913 14.4531 41.5337 14.1661 43.7025C14.0954 44.237 14.0954 44.7784 14.1661 45.3129C14.4531 47.4817 16.3023 49.1024 18.49 49.1024H23.5541C24.7181 49.1024 25.7557 49.8361 26.1436 50.9336C28.0788 56.4089 32.4231 60.7532 37.8984 62.6885C38.9959 63.0764 39.7297 64.114 39.7297 65.278V70.342C39.7297 72.5297 41.3504 74.379 43.5192 74.6659C44.0536 74.7366 44.5951 74.7366 45.1295 74.6659C47.2983 74.379 48.919 72.5297 48.919 70.342V65.278C48.919 64.114 49.6528 63.0764 50.7502 62.6885C56.2256 60.7532 60.5699 56.4089 62.5051 50.9336C62.893 49.8361 63.9306 49.1024 65.0946 49.1024H70.1587C72.3464 49.1024 74.1956 47.4817 74.4826 45.3129C74.5533 44.7784 74.5533 44.237 74.4826 43.7025C74.1956 41.5337 72.3464 39.913 70.1586 39.913H65.0946C63.9306 39.913 62.893 39.1793 62.5051 38.0818C60.5699 32.6064 56.2256 28.2622 50.7502 26.3269C49.6528 25.939 48.919 24.9014 48.919 23.7374V18.6733C48.919 16.4856 47.2983 14.6364 45.1295 14.3495Z" fill="#00086E"/>
<path fill-rule="evenodd" clip-rule="evenodd" d="M32.4231 44.5071C32.4231 37.9342 37.7515 32.6057 44.3245 32.6057C50.8975 32.6057 56.2259 37.9342 56.2259 44.5071C56.2259 51.0801 50.8975 56.4085 44.3245 56.4085C37.7515 56.4085 32.4231 51.0801 32.4231 44.5071ZM44.3245 38.0987C40.7852 38.0987 37.9161 40.9678 37.9161 44.5071C37.9161 48.0464 40.7852 50.9156 44.3245 50.9156C47.8638 50.9156 50.733 48.0464 50.733 44.5071C50.733 40.9678 47.8638 38.0987 44.3245 38.0987Z" fill="#00086E"/>
</svg>
