<svg width="82" height="82" viewBox="0 0 82 82" fill="none" xmlns="http://www.w3.org/2000/svg">
<path fill-rule="evenodd" clip-rule="evenodd" d="M38.0944 14.4173C36.7844 15.424 35.2324 16.9793 32.9283 19.2998L18.5831 33.7471V50.0425C18.5831 57.8394 23.4014 64.6929 30.4656 67.383C30.1488 65.621 30.1518 63.8049 30.4861 62.0241L30.5515 61.6758C31.271 57.8427 34.0972 54.7436 37.8525 53.7016C39.7096 53.1863 41.6707 53.1863 43.5278 53.7016C47.2831 54.7436 50.1094 57.8427 50.8289 61.6758L50.8942 62.0241C51.2285 63.8049 51.2315 65.621 50.9147 67.383C57.9789 64.6929 62.7972 57.8393 62.7972 50.0425V33.747L48.452 19.2998C46.1479 16.9793 44.5959 15.424 43.2859 14.4173C42.0336 13.4551 41.3076 13.2401 40.6902 13.2401C40.0727 13.2401 39.3467 13.4551 38.0944 14.4173ZM67.8676 38.8535L69.3137 40.3099C70.3002 41.3035 71.9054 41.3092 72.899 40.3226C73.8926 39.3361 73.8983 37.7309 72.9117 36.7373L51.9259 15.6022C49.7783 13.4392 47.9878 11.6359 46.3753 10.3968C44.674 9.0895 42.8731 8.16968 40.6902 8.16968C38.5073 8.16968 36.7063 9.0895 35.005 10.3968C33.3925 11.6359 31.602 13.4392 29.4545 15.6022L8.46863 36.7373C7.48208 37.7309 7.48777 39.3361 8.48133 40.3226C9.4749 41.3092 11.0801 41.3035 12.0666 40.3099L13.5127 38.8536V50.0425C13.5127 60.9916 20.9974 70.5197 31.6117 73.0272C37.5829 74.4378 43.7974 74.4378 49.7685 73.0272C60.3829 70.5197 67.8676 60.9916 67.8676 50.0425V38.8535ZM45.241 68.7124C46.0405 66.9113 46.2758 64.9037 45.9108 62.9595L45.8455 62.6112C45.4799 60.6636 44.0486 59.1081 42.1721 58.5874C41.2021 58.3183 40.1782 58.3183 39.2082 58.5874C37.3318 59.1081 35.9005 60.6636 35.5349 62.6112L35.4695 62.9595C35.1046 64.9037 35.3398 66.9113 36.1393 68.7124C39.1599 69.1155 42.2204 69.1155 45.241 68.7124Z" fill="#00086E"/>
</svg>
