<svg width="603" height="568" viewBox="0 0 603 568" fill="none" xmlns="http://www.w3.org/2000/svg">
<mask id="mask0_106_3431" style="mask-type:alpha" maskUnits="userSpaceOnUse" x="95" y="0" width="508" height="508">
<rect x="95" width="507.042" height="507.042" rx="101.408" fill="white"/>
</mask>
<g mask="url(#mask0_106_3431)">
<circle cx="209.93" cy="358.31" r="209.577" fill="#4769E7"/>
<path fill-rule="evenodd" clip-rule="evenodd" d="M351.901 101.436C351.892 118.639 342.702 133.696 328.966 141.972H374.837C361.101 133.696 351.911 118.639 351.901 101.436ZM351.901 101.382C351.887 75.2579 330.705 54.0845 304.578 54.0845C278.441 54.0845 257.254 75.2721 257.254 101.408C257.254 118.623 266.445 133.691 280.189 141.972H223.451C204.782 141.972 189.648 157.106 189.648 175.775V317.747C189.648 336.416 204.782 351.55 223.451 351.55H277.535V398.873C277.535 417.542 292.669 432.676 311.338 432.676H385.704C404.373 432.676 419.507 417.542 419.507 398.873V351.55H473.592C492.26 351.55 507.394 336.416 507.394 317.747V297.465H527.676C538.877 297.465 547.958 288.384 547.958 277.183V216.338C547.958 205.137 538.877 196.056 527.676 196.056H507.394V175.775C507.394 157.106 492.26 141.972 473.592 141.972H423.614C437.358 133.691 446.549 118.623 446.549 101.408C446.549 75.2721 425.362 54.0845 399.225 54.0845C373.098 54.0845 351.916 75.2579 351.901 101.382Z" fill="#00086E"/>
<circle cx="426.268" cy="398.873" r="81.1268" fill="#80AAFE"/>
</g>
</svg>
