<svg width="1197" height="583" viewBox="0 0 1197 583" fill="none" xmlns="http://www.w3.org/2000/svg">
<mask id="mask0_112_3523" style="mask-type:alpha" maskUnits="userSpaceOnUse" x="0" y="75" width="1082" height="508">
<rect y="75" width="1081.69" height="507.042" rx="101.408" fill="white"/>
</mask>
<g mask="url(#mask0_112_3523)">
<circle cx="310.986" cy="88.5209" r="243.38" fill="#4769E7"/>
<circle cx="446.197" cy="372.464" r="114.93" fill="#80AAFE"/>
</g>
<path fill-rule="evenodd" clip-rule="evenodd" d="M756.418 298.098C744.341 319.016 744.341 344.787 756.418 365.704L812.033 462.033C824.11 482.951 846.428 495.836 870.581 495.836H981.813C1005.97 495.836 1028.28 482.951 1040.36 462.033L1095.98 365.704C1108.05 344.787 1108.05 319.016 1095.98 298.098L1040.36 201.769C1028.28 180.852 1005.97 167.966 981.813 167.966L870.581 167.966C846.428 167.966 824.11 180.852 812.033 201.769L756.418 298.098ZM926.197 392.746C959.801 392.746 987.042 365.505 987.042 331.901C987.042 298.297 959.801 271.056 926.197 271.056C892.593 271.056 865.352 298.297 865.352 331.901C865.352 365.505 892.593 392.746 926.197 392.746Z" fill="#00086E"/>
</svg>
