<svg width="75" height="76" viewBox="0 0 75 76" fill="none" xmlns="http://www.w3.org/2000/svg">
<path fill-rule="evenodd" clip-rule="evenodd" d="M37.6761 7.94385C38.9596 7.94385 40 8.98431 40 10.2678L40.0001 20.6277C40.0001 21.9111 38.9596 22.9516 37.6761 22.9516C36.3926 22.9516 35.3522 21.9111 35.3522 20.6277L35.3522 10.2678C35.3522 8.98431 36.3926 7.94385 37.6761 7.94385ZM59.0394 16.7927C59.9469 17.7002 59.9469 19.1717 59.0394 20.0792L51.7139 27.4047C50.8063 28.3123 49.3349 28.3123 48.4273 27.4047C47.5198 26.4972 47.5198 25.0258 48.4273 24.1182L55.7528 16.7927C56.6604 15.8851 58.1318 15.8851 59.0394 16.7927ZM16.3137 16.7927C17.2212 15.8851 18.6927 15.8851 19.6002 16.7927L26.9257 24.1182C27.8333 25.0258 27.8333 26.4972 26.9257 27.4048C26.0182 28.3123 24.5468 28.3123 23.6392 27.4048L16.3137 20.0792C15.4061 19.1717 15.4061 17.7002 16.3137 16.7927ZM52.8796 38.1551C52.8796 36.8716 53.9201 35.8312 55.2036 35.8312H65.5634C66.8469 35.8312 67.8874 36.8716 67.8874 38.1551C67.8874 39.4386 66.8469 40.4791 65.5634 40.4791H55.2036C53.9201 40.4791 52.8796 39.4386 52.8796 38.1551ZM7.46484 38.1551C7.46484 36.8716 8.50531 35.8312 9.78879 35.8312H20.1478C21.4313 35.8312 22.4718 36.8716 22.4718 38.1551C22.4718 39.4386 21.4313 40.4791 20.1478 40.4791H9.78879C8.50531 40.4791 7.46484 39.4386 7.46484 38.1551ZM26.9258 48.9062C27.8334 49.8138 27.8334 51.2852 26.9258 52.1928L19.6009 59.5177C18.6933 60.4253 17.2219 60.4253 16.3143 59.5177C15.4068 58.6102 15.4068 57.1387 16.3143 56.2312L23.6393 48.9062C24.5468 47.9987 26.0183 47.9987 26.9258 48.9062ZM48.4272 48.9062C49.3348 47.9987 50.8062 47.9987 51.7138 48.9062L59.0387 56.2312C59.9463 57.1387 59.9463 58.6102 59.0387 59.5177C58.1312 60.4253 56.6597 60.4253 55.7522 59.5177L48.4272 52.1928C47.5197 51.2852 47.5197 49.8138 48.4272 48.9062ZM37.6761 53.3594C38.9596 53.3594 40.0001 54.3999 40.0001 55.6834V66.0424C40.0001 67.3259 38.9596 68.3664 37.6761 68.3664C36.3926 68.3664 35.3522 67.3259 35.3522 66.0424V55.6834C35.3522 54.3999 36.3926 53.3594 37.6761 53.3594Z" fill="#00086E"/>
</svg>
