<svg width="874" height="358" viewBox="0 0 874 358" fill="none" xmlns="http://www.w3.org/2000/svg">
<g clip-path="url(#clip0_139_738)">
<path d="M108.001 84.7218C110.778 85.1092 113.315 86.5164 115.124 88.6729C115.928 89.6259 116.502 90.7542 116.799 91.9686C117.095 93.1831 117.107 94.4503 116.833 95.6701C116.68 96.4504 116.41 97.2027 116.032 97.901C111.319 110.337 106.38 122.635 101.216 134.796C96.0513 146.956 90.4565 158.986 84.4315 170.884C80.6982 178.291 76.5358 185.471 71.9658 192.386C67.401 199.273 62.7679 206.166 58.0666 213.064C57.7905 213.468 54.9769 218.44 54.4426 219.148C53.1481 221.554 50.9833 223.366 48.3968 224.21C46.352 224.878 44.1348 224.77 42.1639 223.905C39.9685 222.983 38.1785 221.294 37.1242 219.148C36.1893 217.661 30.3394 184.448 29.6715 177.039C29.0037 169.63 28.327 162.211 27.6592 154.641C27.2615 147.885 27.0923 141.228 27.1517 134.67C27.2111 128.112 27.5079 121.524 28.0421 114.906C28.2919 110.839 28.7436 106.787 29.3955 102.766C30.0663 98.7163 30.8706 94.7294 31.8085 90.8052C32.0756 89.7301 32.3784 88.646 32.6989 87.5619C33.0268 86.5293 33.4103 85.5154 33.8475 84.5247C34.5085 83.0448 35.4735 81.7227 36.679 80.6453C37.1547 80.1915 37.7438 79.876 38.3835 79.7325C39.0232 79.5889 39.6897 79.6226 40.3119 79.83C40.9926 80.0489 41.6165 80.4173 42.1385 80.9085C42.6605 81.3996 43.0676 82.0013 43.3304 82.6701C43.5961 83.4711 43.7985 84.2919 43.9358 85.125L44.3365 87.5619L52.1988 147.769C52.5995 150.743 53.0002 153.691 53.4008 156.594C53.8015 159.497 54.2111 162.507 54.6118 165.616C57.1584 160.336 59.6782 155.097 62.1713 149.901C64.6645 144.705 67.1814 139.466 69.722 134.186C75.7374 121.266 82.674 108.801 90.4773 96.8886C92.2438 93.8806 94.2667 91.0327 96.5232 88.3772C99.4912 85.1279 103.317 83.9095 108.001 84.7218Z" fill="white"/>
<path d="M112.104 160.385C112.308 159.14 112.602 157.384 113.163 155.099C113.163 155.099 113.501 153.746 113.893 152.412C118.417 136.703 123.489 121.311 129.11 106.235C134.732 91.1595 140.899 76.1555 147.613 61.2233C149.643 56.8213 151.83 52.5417 154.175 48.3845C156.52 44.2274 158.939 40.1031 161.432 36.0117C162.228 34.4192 163.298 32.9814 164.593 31.7649C165.923 30.5106 167.288 29.2563 168.689 28.002C171.028 25.798 173.838 25.4815 177.121 27.0523C178.633 27.819 179.898 29.001 180.769 30.4614C181.641 31.9218 182.083 33.6009 182.045 35.3039C181.885 36.1998 181.724 37.2302 181.573 38.2515C181.402 39.325 181.167 40.3871 180.87 41.4321C179.148 46.4553 177.548 51.598 176.07 56.8601C174.592 62.1222 172.912 67.2679 171.031 72.297C166.193 86.2856 162.017 100.385 158.503 114.594C154.988 128.804 151.905 143.139 149.251 157.599C147.902 165.933 144.787 173.878 140.116 180.893C139.341 181.834 138.557 182.775 137.783 183.724C137.008 184.674 136.216 185.516 135.441 186.314C131.06 190.238 125.985 191.259 120.215 189.378C117.472 188.392 115.068 186.635 113.288 184.316C111.816 182.266 110.896 179.868 110.617 177.354C110.488 176.299 110.446 175.236 110.492 174.174C110.528 172.785 110.634 169.551 112.104 160.385Z" fill="white"/>
<path d="M259.86 41.7431C262.193 42.0603 264.325 43.2386 265.843 45.0491C266.517 45.8451 266.997 46.7887 267.245 47.8044C267.492 48.8202 267.5 49.8801 267.268 50.8996C267.14 51.551 266.915 52.1793 266.6 52.7631C262.664 63.144 258.539 73.4204 254.223 83.5922C249.908 93.7641 245.221 103.831 240.164 113.794C237.036 119.965 233.554 125.948 229.737 131.713C225.917 137.474 216.461 151.674 216.185 152.319C215.909 152.964 212.17 157.695 210.033 158.34C208.32 158.897 206.464 158.805 204.815 158.08C202.982 157.309 201.489 155.896 200.612 154.102C199.633 152.239 194.931 125.19 194.379 118.946C192.937 102.676 192.937 104.45 192.696 100.23C192.233 92.2828 192.251 86.2173 192.278 83.5385C192.358 75.3855 192.839 69.311 193.035 67.0264C193.48 61.7493 193.979 58.3717 194.21 56.8575C194.21 56.8575 194.905 52.3778 196.231 46.8678C196.231 46.8678 196.498 45.7479 196.988 44.18C197.221 43.3135 197.519 42.4659 197.879 41.6445C198.159 41.0422 198.493 40.4665 198.876 39.9243C199.25 39.3549 199.71 38.8471 200.238 38.4192C200.662 38.0409 201.173 37.7759 201.725 37.6487C202.239 37.5526 202.768 37.5864 203.266 37.7472C203.579 37.837 203.878 37.9697 204.156 38.1414C204.886 38.6181 205.457 39.3049 205.794 40.1125C206.033 40.7708 206.204 41.4524 206.302 42.1463C206.533 43.3916 206.631 44.18 206.631 44.18C207.148 48.2565 212.089 86.4413 213.202 94.4957C213.763 98.5543 213.915 99.065 214.209 101.869C214.787 107.308 214.6 109.27 215.224 109.404C216.283 109.646 218.091 104.136 221.537 96.2787C222.774 93.4296 224.466 90.0071 227.85 83.1443C238.891 60.7459 246.958 48.1311 250.243 44.861C251.195 43.8307 252.335 42.9942 253.6 42.3971C255.569 41.5645 257.744 41.3582 259.833 41.8058" fill="white"/>
<path d="M349.818 13.3C351.416 13.89 352.871 14.8161 354.086 16.0165C355.3 17.2169 356.246 18.664 356.861 20.2614C357.498 21.863 357.815 23.5752 357.793 25.3001C357.772 27.025 357.413 28.7287 356.737 30.3138C355.448 33.3211 353.065 35.7188 350.076 37.0154C347.004 38.3862 339.062 37.105 336.498 36.7556C332.323 36.4018 328.126 36.4018 323.952 36.7556C321.731 36.6782 319.526 37.165 317.541 38.1712C315.582 39.3677 313.919 40.9977 312.679 42.9375C311.919 43.9164 311.234 44.9528 310.631 46.0375C309.946 48.2684 309.349 50.5172 308.851 52.7391C308.352 54.961 307.827 57.2904 307.319 59.6915C305.948 65.545 304.624 71.3895 303.348 77.225C302.066 83.0665 299.029 99.2202 298.896 100.421C300.258 100.591 301.46 100.77 302.458 100.94C303.581 101.135 304.693 101.392 305.788 101.711C312.104 102.905 315.52 106.17 316.036 111.503C316.547 116.664 314.071 120.358 308.61 122.586C306.248 123.607 303.806 124.428 301.309 125.041C298.825 125.641 296.225 126.367 293.491 127.227C292.575 129.453 291.805 131.736 291.185 134.063C290.33 137.05 289.52 140.269 288.754 143.721C287.988 147.174 287.347 150.656 286.831 154.168C286.323 157.689 285.94 160.825 285.807 163.575C286.697 163.405 289.564 163.486 290.419 163.315C294.676 162.285 298.999 161.552 303.357 161.12C307.714 160.702 312.109 160.404 316.544 160.224C318.422 160.224 320.346 160.314 322.314 160.475C324.281 160.637 326.196 160.914 328.074 161.255C329.87 161.562 331.576 162.266 333.07 163.315C334.534 164.361 335.793 165.67 336.783 167.177C337.684 168.273 338.316 169.569 338.625 170.958C338.935 172.347 338.913 173.79 338.563 175.169C338.225 176.615 337.57 177.968 336.646 179.127C335.721 180.287 334.551 181.224 333.221 181.87C331.579 182.877 329.769 183.575 327.879 183.931C321.735 184.97 315.63 186.045 309.563 187.156C303.499 188.276 262.897 189.181 259.994 189.351C257.433 189.571 254.856 189.223 252.444 188.331C250.031 187.439 247.843 186.026 246.032 184.191C242.262 180.526 240.031 175.546 239.8 170.277C239.621 167.757 239.881 165.226 240.565 162.796C241.283 160.31 242.225 157.896 243.379 155.583C248.285 145.562 252.646 135.279 256.441 124.781C260.199 114.388 263.956 103.864 267.714 93.2084C270.088 86.3336 272.308 79.4648 274.374 72.6019C276.44 65.7391 278.66 58.9509 281.034 52.2374C281.252 51.5358 281.511 50.8477 281.809 50.1767C284.367 41.074 287.698 33.6855 291.799 28.0113C299.653 17.0211 310.154 11.3469 323.302 10.9885C328.807 10.639 334.329 10.6809 339.828 11.1139C344.351 11.544 347.723 12.2757 349.943 13.309" fill="white"/>
<path d="M128.596 238.33C128.67 239.967 128.59 241.608 128.356 243.231C127.483 249.287 126.593 255.302 125.684 261.275C124.776 267.248 123.886 273.22 123.013 279.193C122.544 282.693 122.167 286.179 121.882 289.649C121.597 293.119 121.262 296.643 120.876 300.221C120.716 301.332 120.582 302.47 120.458 303.626C120.333 304.781 120.164 305.955 119.923 307.147C119.373 309.26 118.17 311.142 116.486 312.522C115.699 313.235 114.756 313.752 113.734 314.032C112.712 314.312 111.639 314.347 110.601 314.135C109.567 313.918 108.597 313.466 107.764 312.814C106.93 312.162 106.256 311.326 105.793 310.372C105.252 309.518 104.832 308.592 104.546 307.621C104.265 306.61 104.205 305.55 104.368 304.513C104.528 303.402 104.671 302.3 104.787 301.224C104.902 300.149 105.045 299.056 105.205 297.936C105.68 295.714 106.155 293.504 106.63 291.306C107.105 289.108 107.618 286.898 108.17 284.677V283.601C108.882 280.257 109.794 275.795 110.904 270.216C109.794 273.8 108.488 277.784 106.986 282.168C105.53 286.429 103.824 290.6 101.875 294.657C100.168 298.283 98.1007 301.726 95.7044 304.934C93.4903 307.836 91.1545 309.569 88.6969 310.13C88.1614 310.313 87.597 310.395 87.0319 310.372C86.5919 310.392 86.1513 310.35 85.723 310.246C84.8741 310.097 84.0699 309.756 83.3712 309.249C82.6724 308.741 82.0974 308.081 81.6895 307.317C80.6534 305.449 79.9683 303.405 79.6682 301.287C79.257 298.68 79.0782 296.042 79.134 293.403C79.134 290.536 79.3299 287.66 79.6059 284.793C79.8819 281.926 80.2203 279.22 80.621 276.667C81.0217 274.113 81.4134 271.936 81.8052 270.1L75.0381 287.427C74.6404 288.861 74.2457 290.294 73.8539 291.728C73.4532 293.161 73.0614 294.639 72.6607 296.144C72.269 297.506 71.8683 298.832 71.4765 300.149C71.0847 301.466 70.6484 302.756 70.1676 304.038C69.1474 307.284 67.3065 310.208 64.8252 312.522C63.9504 313.424 62.756 313.939 61.504 313.956C61.013 313.86 60.5476 313.661 60.138 313.373C59.7284 313.084 59.3838 312.712 59.1266 312.28C58.4465 311.163 58.0774 309.881 58.0581 308.571C58.0581 307.621 58.0581 306.663 58.1739 305.704L58.4143 302.837C58.7259 301.726 59.0019 300.669 59.2423 299.674C59.4827 298.68 59.7588 297.703 60.0793 296.745C61.4268 292.522 62.7327 288.341 63.9971 284.202C65.2615 280.062 66.5674 275.92 67.9149 271.775C69.1021 268.108 70.408 264.503 71.8327 260.961C73.2573 257.419 74.7621 253.934 76.347 250.506C77.2909 248.355 78.3237 246.259 79.4278 244.234C80.5319 242.209 81.6895 240.238 82.8737 238.321C83.586 237.291 85.1353 235.293 85.1353 235.212C85.4903 234.736 85.9314 234.332 86.4353 234.02C88.1644 233.164 90.1164 232.872 92.0182 233.187C93.1962 233.657 94.2094 234.468 94.9298 235.517C95.6688 236.621 95.9851 237.958 95.8202 239.279C95.5768 242.702 95.378 245.79 95.2236 248.543C95.0633 251.285 94.8675 254.439 94.6359 257.978C94.4044 261.517 94.1551 265.208 93.9236 269.033C93.8435 270.144 93.7812 271.202 93.7455 272.196C93.7099 273.191 93.6387 274.212 93.5675 275.242C95.0633 271.9 96.5948 268.514 98.1352 265.091C99.6756 261.669 101.243 258.354 102.828 255.173C104.413 252.145 105.858 249.475 107.164 247.164C108.464 244.852 109.711 242.827 110.904 241.071C114.382 236.054 117.626 233.107 120.636 232.228C121.161 231.995 121.727 231.874 122.301 231.87H122.657C123.884 231.938 125.063 232.375 126.041 233.124C127.036 233.894 127.765 234.96 128.124 236.171L128.24 236.412C128.473 237.022 128.593 237.668 128.596 238.321" fill="white"/>
<path d="M164.069 246.565C164.401 252.013 163.975 257.48 162.805 262.809C161.586 268.217 159.714 273.456 157.231 278.407C156.298 280.264 155.098 281.973 153.669 283.478C152.266 284.954 150.779 286.348 149.217 287.653C148.633 288.118 147.973 288.479 147.267 288.719C146.297 289.075 145.286 289.304 144.258 289.4C143.054 289.51 141.843 289.495 140.643 289.355C139.337 289.212 138.06 288.868 136.858 288.334C135.682 287.853 134.595 287.175 133.644 286.327C132.744 285.53 131.916 284.654 131.169 283.711C130.518 282.908 129.945 282.044 129.459 281.13C129.095 280.49 128.819 279.803 128.64 279.088C128.215 277.16 127.918 275.205 127.75 273.237C127.593 271.221 127.731 269.193 128.159 267.217C129.181 261.943 130.875 256.823 133.199 251.986C135.549 247.201 138.546 242.766 142.103 238.807C142.903 237.893 143.76 237.032 144.667 236.226C145.558 235.436 146.524 234.737 147.552 234.139C148.743 233.369 150.065 232.828 151.452 232.544C152.799 232.299 154.18 232.314 155.521 232.589C155.575 232.589 155.601 232.589 155.601 232.589C155.601 232.589 155.601 232.634 155.682 232.634C156.307 232.752 156.908 232.973 157.462 233.288C158.648 233.891 159.723 234.694 160.641 235.662C161.574 236.704 162.291 237.922 162.751 239.246C163.19 240.403 163.504 241.604 163.686 242.829C163.882 244.057 164.025 245.302 164.14 246.556M146.929 273.085C149.328 268.924 151.212 264.483 152.538 259.861C153.849 255.261 154.641 250.528 154.898 245.75C154.952 245.328 154.967 244.902 154.943 244.478C154.943 244.066 154.871 243.645 154.818 243.206C154.843 242.707 154.761 242.21 154.578 241.746C154.395 241.282 154.116 240.863 153.758 240.518C153.268 240.545 152.791 240.685 152.363 240.927C151.935 241.169 151.569 241.508 151.292 241.915C150.706 242.501 150.165 243.13 149.671 243.797C147.017 247.617 144.793 251.722 143.038 256.035C141.306 260.355 140.09 264.866 139.414 269.474C139.307 270.37 139.218 271.266 139.129 272.162C139.034 273.056 139.034 273.957 139.129 274.85C139.236 275.746 139.396 276.642 139.619 277.672C139.644 278.087 139.799 278.484 140.061 278.805C140.323 279.127 140.679 279.358 141.079 279.464C141.332 279.515 141.595 279.497 141.839 279.412C142.083 279.327 142.3 279.178 142.468 278.98C142.895 278.541 143.278 278.129 143.599 277.744C144.248 277.057 144.844 276.32 145.38 275.54C145.896 274.778 146.395 273.981 146.884 273.166" fill="white"/>
<path d="M196.15 300.15C195.507 300.344 194.889 300.611 194.307 300.947C193.25 301.485 192.004 302.082 190.567 302.739C189.142 303.393 187.602 304.038 185.973 304.647C184.343 305.256 182.91 305.74 181.681 306.072C181.111 306.233 170.034 309.028 168.556 309.279C167.154 309.528 165.711 309.379 164.389 308.849C163.023 308.258 161.823 307.334 160.899 306.161C159.815 304.795 159.078 303.184 158.753 301.467C158.026 297.871 158.335 294.141 159.643 290.715C160.302 288.583 161.032 286.505 161.851 284.489C162.671 282.473 163.49 280.394 164.3 278.217L174.237 250.21C174.73 248.729 175.24 247.236 175.769 245.731C176.297 244.225 176.807 242.681 177.3 241.099C177.629 240.203 177.977 239.307 178.342 238.411C178.702 237.537 179 236.639 179.232 235.723C179.763 233.604 180.667 231.598 181.903 229.801C182.974 228.317 184.305 227.041 185.83 226.038C187.341 225.075 188.998 224.367 190.736 223.941C192.55 223.497 194.396 223.197 196.257 223.045C198.925 222.85 201.603 223.248 204.101 224.21C207.177 225.311 210.071 226.873 212.685 228.842C215.543 230.978 218.065 233.537 220.164 236.431C222.387 239.47 223.972 242.933 224.821 246.609C228.086 260.597 225.308 273.14 216.487 284.238C214.662 286.485 212.628 288.551 210.414 290.411C208.248 292.203 205.98 293.929 203.612 295.589C202.461 296.33 201.272 297.009 200.05 297.623C198.681 298.324 197.369 299.129 196.123 300.033M210.227 262.52C211.19 259.983 211.647 257.28 211.572 254.564C211.478 251.85 210.719 249.2 209.364 246.85C207.841 244.115 205.848 241.673 203.478 239.638C201.169 237.693 198.44 236.319 195.509 235.624C195.12 235.464 194.693 235.42 194.28 235.499C193.87 235.589 193.39 235.669 192.811 235.75C192.401 239.286 192.033 242.658 191.707 245.865C191.38 249.057 190.89 252.23 190.238 255.371C189.264 260.376 188.184 265.244 186.997 269.975C185.809 274.705 184.622 279.483 183.435 284.31C183.272 284.933 183.189 285.574 183.186 286.218C183.174 286.947 183.093 287.673 182.945 288.386C185.056 287.291 187.101 286.074 189.071 284.74C191.363 283.222 193.612 281.598 195.82 279.866C197.949 278.202 199.994 276.432 201.946 274.562C203.523 273.096 204.96 271.485 206.238 269.751C207.068 268.67 207.827 267.536 208.509 266.355C209.205 265.153 209.801 263.894 210.29 262.592" fill="white"/>
<path d="M254.72 255.747C255.247 255.942 255.726 256.247 256.126 256.643C256.527 257.038 256.84 257.514 257.044 258.04C257.466 259.108 257.45 260.3 257 261.355C256.574 262.348 255.787 263.14 254.8 263.568C253.785 264.025 251.167 263.568 250.348 263.479C248.97 263.367 247.586 263.367 246.208 263.479C245.476 263.453 244.749 263.617 244.098 263.953C243.447 264.344 242.896 264.88 242.486 265.521C242.236 265.845 242.01 266.186 241.809 266.543C241.587 267.286 241.391 268.021 241.222 268.756C241.052 269.49 240.883 270.261 240.714 271.049C240.263 272.984 239.827 274.914 239.405 276.837C238.984 278.76 238.547 280.716 238.096 282.705C238.038 282.97 238.008 283.24 238.007 283.512C238.002 283.839 237.975 284.165 237.927 284.488L239.102 284.658C239.475 284.725 239.843 284.812 240.207 284.918C242.29 285.312 243.418 286.388 243.59 288.144C243.762 289.9 242.943 291.121 241.133 291.808C240.355 292.145 239.551 292.415 238.728 292.614C237.909 292.811 237.046 293.053 236.146 293.34C235.844 294.072 235.591 294.823 235.389 295.589C235.105 296.583 234.837 297.65 234.588 298.778C234.339 299.907 234.116 301.063 233.947 302.228C233.778 303.392 233.671 304.423 233.609 305.328C233.894 305.274 234.855 305.328 235.131 305.247C236.538 304.907 237.966 304.664 239.405 304.521C240.842 304.378 242.293 304.279 243.759 304.226C244.353 304.226 244.985 304.253 245.656 304.306C246.306 304.369 246.938 304.45 247.561 304.566C248.154 304.667 248.717 304.9 249.209 305.247C249.694 305.59 250.11 306.022 250.437 306.519C250.734 306.881 250.941 307.308 251.043 307.766C251.145 308.223 251.139 308.699 251.025 309.153C250.911 309.633 250.692 310.08 250.384 310.463C250.076 310.846 249.686 311.155 249.244 311.366C248.696 311.699 248.093 311.929 247.463 312.047C245.433 312.388 243.421 312.743 241.426 313.113C239.423 313.481 228.685 313.893 227.812 313.83C226.94 313.767 221.731 313.382 220.457 312.137C219.209 310.928 218.469 309.283 218.392 307.541C218.33 306.711 218.414 305.877 218.641 305.077C218.863 304.256 219.161 303.458 219.531 302.694C221.143 299.382 222.582 295.988 223.841 292.525C225.082 289.102 226.319 285.629 227.554 282.105C228.349 279.835 229.082 277.569 229.753 275.305C230.424 273.041 231.157 270.801 231.952 268.585C232.024 268.353 232.11 268.126 232.211 267.904C232.873 265.291 233.988 262.817 235.505 260.594C236.651 258.876 238.197 257.467 240.008 256.488C241.819 255.509 243.84 254.99 245.896 254.976C247.714 254.862 249.538 254.877 251.354 255.021C252.498 255.085 253.625 255.33 254.693 255.747" fill="white"/>
<path d="M275.335 294.917L278.843 295.912C279.956 296.225 281.06 296.557 282.147 296.897C284.239 297.65 286.277 298.548 288.246 299.585C289.588 300.202 290.77 301.122 291.701 302.273C292.271 302.788 292.694 303.445 292.928 304.179C293.162 304.913 293.198 305.696 293.032 306.448C292.866 307.2 292.505 307.894 291.985 308.459C291.464 309.025 290.804 309.441 290.071 309.665L287.934 310.292L285.602 310.713C284.782 310.847 284.008 310.99 283.26 311.125C281.099 311.471 278.983 311.8 276.911 312.11C274.84 312.421 272.72 312.785 270.554 313.203C269.112 313.478 267.649 313.619 266.182 313.625C264.593 313.691 263.013 313.365 261.578 312.675C259.735 311.779 256.966 307.864 256.619 306.86C256.175 305.514 255.9 304.118 255.8 302.703C255.765 301.473 255.89 300.244 256.174 299.048C256.411 298.008 256.8 296.587 257.34 294.783C259.044 289.091 260.789 283.417 262.576 277.76C264.362 272.104 266.345 266.501 268.524 260.953C270.428 255.809 272.813 250.86 275.647 246.17C276.19 245.408 276.697 244.655 277.169 243.93C277.658 243.179 278.203 242.466 278.799 241.797C279.529 240.942 280.442 240.265 281.47 239.817C281.931 239.583 282.45 239.487 282.963 239.543C283.477 239.598 283.963 239.803 284.364 240.131C284.809 240.463 285.161 240.906 285.385 241.417C285.608 241.928 285.695 242.488 285.637 243.043C285.635 243.537 285.566 244.028 285.432 244.503C285.299 244.987 285.156 245.471 285.023 245.964C282.714 253.454 280.799 260.982 279.28 268.55C277.76 276.118 276.525 283.787 275.576 291.558C275.504 292.113 275.433 294.335 275.371 294.882" fill="white"/>
<path d="M337.386 256C337.807 262.298 337.276 268.623 335.81 274.761C334.274 281.043 331.93 287.097 328.839 292.769C327.619 294.982 326.096 297.715 324.333 299.417C321.871 301.476 319.182 303.243 316.319 304.685C315.102 305.089 313.84 305.341 312.562 305.438C311.054 305.576 309.537 305.576 308.03 305.438C306.406 305.269 304.815 304.871 303.302 304.255C301.842 303.71 300.483 302.926 299.277 301.935C298.157 301.022 297.12 300.012 296.179 298.915C295.377 297.988 294.662 296.99 294.042 295.932C293.589 295.2 293.245 294.406 293.018 293.575C292.485 291.351 292.113 289.09 291.905 286.811C291.706 284.484 291.878 282.14 292.412 279.868C293.702 273.745 295.824 267.83 298.716 262.289C301.676 256.708 305.412 251.579 309.811 247.059C310.816 246 311.886 245.007 313.016 244.084C314.141 243.166 315.352 242.358 316.631 241.674C319.619 239.851 323.174 239.213 326.604 239.882C326.666 239.882 326.702 239.882 326.702 239.927C326.702 239.972 326.702 239.981 326.8 239.981C327.581 240.117 328.337 240.371 329.043 240.733C330.505 241.427 331.846 242.352 333.015 243.475C334.178 244.663 335.087 246.077 335.686 247.632C336.225 248.955 336.616 250.334 336.852 251.744C337.093 253.16 337.28 254.602 337.413 256.045M315.919 286.623C318.899 281.871 321.257 276.752 322.935 271.392C324.567 266.096 325.56 260.621 325.891 255.086C325.946 254.58 325.949 254.07 325.9 253.563C325.9 253.088 325.82 252.604 325.749 252.103C325.776 251.515 325.672 250.93 325.444 250.388C325.216 249.847 324.869 249.364 324.431 248.976C323.836 249.005 323.255 249.164 322.727 249.443C322.2 249.721 321.739 250.112 321.377 250.589C320.645 251.263 319.964 251.991 319.338 252.766C316.042 257.138 313.261 261.879 311.048 266.895C308.885 271.861 307.362 277.084 306.516 282.439C306.383 283.514 306.267 284.536 306.16 285.512C306.063 286.535 306.081 287.566 306.213 288.585C306.363 289.682 306.568 290.77 306.828 291.846C306.883 292.335 307.089 292.793 307.416 293.158C307.744 293.522 308.176 293.775 308.653 293.88C308.966 293.938 309.289 293.917 309.592 293.818C309.895 293.72 310.169 293.547 310.389 293.316C310.924 292.805 311.404 292.339 311.814 291.891C312.606 291.099 313.336 290.245 313.996 289.338C314.646 288.442 315.269 287.546 315.883 286.596" fill="white"/>
<path d="M64.7986 59.871C64.1041 59.3513 63.4096 58.8317 62.724 58.2941L64.3801 59.5843C58.1848 54.7506 52.4766 49.316 47.3378 43.3589C45.8775 41.6566 44.4647 39.9155 43.0994 38.1356L44.3816 39.811L43.1707 38.2073C42.6795 37.2529 41.9529 36.4415 41.0604 35.8509C40.2752 35.1448 39.3259 34.6487 38.3002 34.4085C37.243 34.0688 36.1149 34.0194 35.0324 34.2651C33.946 34.3105 32.8914 34.6477 31.9783 35.2417C30.1344 36.3338 28.784 38.1038 28.2119 40.1783L27.918 42.3734C27.9119 43.8384 28.2996 45.2779 29.0399 46.5395C34.8146 54.4677 41.4738 61.7033 48.8871 68.1046C51.3624 70.2011 53.9179 72.208 56.509 74.1432C57.4239 74.7333 58.4774 75.0702 59.563 75.1198C60.6314 75.315 61.7294 75.2692 62.778 74.9856C63.8266 74.7021 64.7995 74.1879 65.6267 73.4802C66.5146 72.8997 67.2409 72.101 67.737 71.1597C68.2864 70.2073 68.6424 69.1546 68.7846 68.0627C68.9267 66.9708 68.8521 65.8613 68.565 64.7986L67.737 62.8275C67.0256 61.6025 66.014 60.5814 64.7986 59.862" fill="#00C9FF"/>
<path d="M92.0899 51.672L84.0763 31.2716C82.7228 27.8133 81.3665 24.3579 80.0071 20.9056C78.0957 15.9361 76.1695 10.9936 74.2284 6.07787C73.9924 5.02934 73.4856 4.06203 72.7592 3.2736C72.1859 2.37804 71.3953 1.6442 70.462 1.14127C69.547 0.551183 68.4935 0.214332 67.4079 0.164705C66.3189 -0.0814501 65.1842 -0.028849 64.1223 0.317013C62.0618 0.895248 60.3037 2.25335 59.2161 4.10682L58.3881 6.07787C57.9963 7.51469 57.9963 9.03114 58.3881 10.468L66.4017 30.8684C67.7492 34.3267 69.1026 37.779 70.462 41.2254C72.3912 46.171 74.3263 51.1135 76.2674 56.0531C76.5034 57.1017 77.0102 58.069 77.7366 58.8574C78.347 59.7371 79.1418 60.4714 80.0648 61.0085C80.9879 61.5457 82.0168 61.8726 83.079 61.9663C84.1721 62.2215 85.3134 62.1751 86.3824 61.8319C88.4404 61.2533 90.1956 59.895 91.2796 58.0421L92.1077 56.071C92.4995 54.6342 92.4995 53.1178 92.1077 51.681" fill="#00C9FF"/>
<path d="M324.852 330.8C325.983 332.126 327.087 333.488 328.155 334.868L326.873 333.202C331.699 339.512 335.733 346.397 338.885 353.7C339.384 354.64 340.114 355.435 341.004 356.012C341.784 356.743 342.742 357.253 343.782 357.49C344.839 357.83 345.967 357.879 347.05 357.634C348.137 357.592 349.192 357.255 350.104 356.657C351.944 355.567 353.291 353.8 353.861 351.729L354.155 349.543C354.16 348.08 353.776 346.641 353.042 345.377C350.025 338.376 346.194 331.759 341.627 325.667C339.962 323.436 338.252 321.241 336.436 319.117C334.871 317.631 332.8 316.803 330.648 316.803C328.496 316.803 326.426 317.631 324.861 319.117C323.328 320.668 322.464 322.763 322.457 324.95L322.75 327.145C323.13 328.52 323.857 329.774 324.861 330.782" fill="#00C9FF"/>
<path d="M194.057 210.182C198.363 210.126 202.484 208.411 205.57 205.389C208.473 202.218 210.162 198.112 210.334 193.804C210.147 189.567 208.766 185.177 205.57 182.22C202.515 179.151 198.374 177.427 194.057 177.427C189.74 177.427 185.599 179.151 182.544 182.22C180.989 183.656 179.832 185.475 179.187 187.497C178.175 189.425 177.689 191.59 177.78 193.769C177.967 198.006 179.347 202.396 182.544 205.353C185.636 208.366 189.753 210.08 194.057 210.146" fill="#00C9FF"/>
<path d="M305.779 341.174C307.901 341.146 309.932 340.3 311.451 338.809C312.877 337.244 313.71 335.223 313.802 333.102C313.789 330.964 312.945 328.916 311.451 327.395C310.707 326.645 309.823 326.049 308.85 325.643C307.876 325.237 306.833 325.028 305.779 325.028C304.726 325.028 303.682 325.237 302.709 325.643C301.736 326.049 300.852 326.645 300.108 327.395C299.34 328.101 298.769 328.997 298.451 329.993C297.953 330.95 297.714 332.022 297.757 333.102C297.768 335.241 298.612 337.29 300.108 338.809C301.63 340.296 303.658 341.142 305.779 341.174Z" fill="#00C9FF"/>
<path d="M29.3155 293.878C28.1846 295.213 27.0805 296.566 26.021 297.955L27.3031 296.289C22.4744 302.599 18.4371 309.483 15.2827 316.788C14.7853 317.726 14.0592 318.521 13.1724 319.099C12.3846 319.824 11.4249 320.333 10.3854 320.577C9.32829 320.917 8.20018 320.966 7.11766 320.721C6.03452 320.672 4.98359 320.335 4.07247 319.744C2.22912 318.656 0.878533 316.889 0.306055 314.816L0.0122216 312.577C0.00947136 311.115 0.396937 309.679 1.13413 308.42C4.1491 301.419 7.97782 294.803 12.5402 288.709C14.2142 286.478 15.9238 284.274 17.7313 282.16C18.4572 281.366 19.3787 280.778 20.4025 280.457C21.3749 279.942 22.4654 279.695 23.5634 279.741C24.6599 279.689 25.7503 279.931 26.7244 280.439C27.7482 280.76 28.6697 281.348 29.3956 282.142C30.9297 283.691 31.7937 285.787 31.7997 287.974L31.5059 290.16C31.1182 291.574 30.362 292.858 29.3155 293.878Z" fill="#00C9FF"/>
<path d="M48.3882 304.209C46.28 304.173 44.2645 303.331 42.7519 301.853C41.3239 300.29 40.494 298.267 40.4102 296.146C40.4131 294.007 41.2547 291.956 42.7519 290.439C44.275 288.953 46.3031 288.108 48.4238 288.073C50.5465 288.098 52.5782 288.945 54.0957 290.439C55.5216 292.004 56.3539 294.024 56.4464 296.146C56.4334 298.284 55.5897 300.332 54.0957 301.853C52.5702 303.333 50.5429 304.175 48.4238 304.209" fill="#00C9FF"/>
</g>
<path d="M495.988 129.521V103.933H500.655C502.496 103.933 503.847 104.032 504.709 104.231C505.583 104.429 506.341 104.755 506.981 105.209C507.785 105.792 508.409 106.59 508.851 107.604C509.294 108.617 509.516 109.742 509.516 110.977C509.516 113.412 508.834 115.201 507.471 116.342C506.108 117.473 503.952 118.038 501.004 118.038H498.313V129.521H495.988ZM498.313 115.993H499.903C502.723 115.993 504.616 115.638 505.583 114.927C506.562 114.204 507.051 112.946 507.051 111.152C507.051 110.394 506.941 109.701 506.719 109.072C506.498 108.431 506.166 107.86 505.723 107.359C505.269 106.846 504.651 106.485 503.87 106.275C503.09 106.066 501.767 105.961 499.903 105.961H498.313V115.993ZM526.346 128.122C527.861 128.122 529.294 127.843 530.646 127.283C531.998 126.724 533.215 125.908 534.299 124.837C535.359 123.753 536.169 122.524 536.728 121.149C537.299 119.762 537.585 118.306 537.585 116.779C537.585 115.241 537.305 113.791 536.746 112.427C536.186 111.053 535.371 109.818 534.299 108.722C533.238 107.65 532.027 106.835 530.663 106.275C529.312 105.716 527.873 105.436 526.346 105.436C524.832 105.436 523.404 105.716 522.065 106.275C520.725 106.835 519.513 107.65 518.429 108.722C517.357 109.829 516.542 111.064 515.982 112.427C515.423 113.779 515.143 115.23 515.143 116.779C515.143 118.317 515.423 119.774 515.982 121.149C516.542 122.512 517.357 123.741 518.429 124.837C519.501 125.92 520.701 126.742 522.03 127.301C523.358 127.848 524.797 128.122 526.346 128.122ZM540.049 116.779C540.049 118.585 539.705 120.304 539.018 121.935C538.33 123.555 537.34 125 536.047 126.27C534.73 127.551 533.244 128.53 531.59 129.206C529.935 129.87 528.187 130.202 526.346 130.202C524.506 130.202 522.758 129.87 521.103 129.206C519.46 128.53 517.986 127.551 516.681 126.27C515.376 124.976 514.38 123.526 513.693 121.918C513.017 120.298 512.679 118.585 512.679 116.779C512.679 114.95 513.017 113.226 513.693 111.606C514.38 109.975 515.376 108.513 516.681 107.219C517.963 105.949 519.425 104.988 521.068 104.335C522.711 103.683 524.471 103.357 526.346 103.357C528.234 103.357 529.999 103.689 531.642 104.353C533.297 105.005 534.765 105.961 536.047 107.219C537.352 108.513 538.342 109.975 539.018 111.606C539.705 113.226 540.049 114.95 540.049 116.779ZM547.529 105.961V115.416H549.871C552.038 115.416 553.547 115.072 554.398 114.385C555.26 113.686 555.691 112.503 555.691 110.837C555.691 109.078 555.248 107.825 554.363 107.079C553.477 106.334 551.98 105.961 549.871 105.961H547.529ZM560.742 129.521H557.911L548.927 117.321H547.529V129.521H545.205V103.933H549.906C552.679 103.933 554.753 104.51 556.128 105.664C557.515 106.817 558.208 108.565 558.208 110.907C558.208 112.899 557.614 114.467 556.425 115.608C555.248 116.75 553.623 117.321 551.549 117.321L560.742 129.521ZM496.661 149.14H507.095V167.806C507.095 170.55 507.165 172.525 507.305 173.731C507.445 174.919 507.681 175.915 508.013 176.719C508.415 177.698 509.114 178.45 510.11 178.974C511.106 179.481 512.321 179.734 513.754 179.734C515.187 179.734 516.393 179.481 517.372 178.974C518.368 178.45 519.076 177.698 519.495 176.719C519.827 175.915 520.063 174.919 520.203 173.731C520.343 172.525 520.413 170.55 520.413 167.806V165.184V149.14H530.821V169.431C530.821 173.643 530.567 176.754 530.06 178.764C529.554 180.757 528.697 182.461 527.491 183.876C526.18 185.432 524.38 186.603 522.091 187.389C519.801 188.158 517.022 188.543 513.754 188.543C510.468 188.543 507.681 188.158 505.391 187.389C503.119 186.603 501.319 185.432 499.99 183.876C498.802 182.461 497.946 180.757 497.421 178.764C496.914 176.754 496.661 173.643 496.661 169.431V165.446V149.14ZM538.79 187.521V149.14H548.884L563.381 168.881C563.661 169.283 564.115 170.095 564.745 171.319C565.391 172.525 566.099 173.967 566.868 175.645C566.658 174.054 566.501 172.638 566.396 171.397C566.309 170.157 566.265 169.056 566.265 168.094V149.14H576.306V187.521H566.265L551.768 167.701C551.47 167.299 550.999 166.495 550.352 165.289C549.723 164.066 549.032 162.633 548.281 160.99C548.491 162.598 548.639 164.022 548.726 165.263C548.831 166.504 548.884 167.605 548.884 168.566V187.521H538.79ZM584.826 187.521V149.14H595.391V187.521H584.826ZM614.844 187.521L598.747 149.14H609.863L617.544 170.611C617.614 170.838 617.754 171.389 617.964 172.263C618.191 173.119 618.479 174.281 618.829 175.749C619.108 174.578 619.371 173.521 619.615 172.577C619.86 171.633 620.044 170.978 620.166 170.611L627.795 149.14H638.91L622.814 187.521H614.844ZM642.03 187.521V149.14H665.546V157.555H652.228V164.214H664.786V172.446H652.228V178.922H665.546V187.521H642.03ZM672.494 187.521V149.14H683.426C687.708 149.14 690.688 149.341 692.365 149.743C694.061 150.127 695.52 150.783 696.744 151.709C698.124 152.758 699.182 154.095 699.916 155.72C700.667 157.346 701.043 159.137 701.043 161.094C701.043 164.066 700.309 166.486 698.841 168.356C697.39 170.209 695.267 171.441 692.47 172.053L702.931 187.521H691.107L682.298 172.499V187.521H672.494ZM682.298 167.282H684.238C686.493 167.282 688.136 166.897 689.167 166.128C690.216 165.359 690.74 164.153 690.74 162.51C690.74 160.588 690.251 159.224 689.272 158.42C688.311 157.599 686.685 157.188 684.396 157.188H682.298V167.282ZM708.646 175.12C710.201 176.885 711.731 178.205 713.234 179.079C714.754 179.953 716.266 180.39 717.769 180.39C719.167 180.39 720.312 180.014 721.203 179.262C722.112 178.511 722.567 177.558 722.567 176.405C722.567 175.129 722.173 174.15 721.387 173.469C720.618 172.769 718.861 172.053 716.117 171.319C712.36 170.305 709.703 168.986 708.148 167.36C706.592 165.735 705.814 163.506 705.814 160.675C705.814 157.005 707.038 154.016 709.485 151.709C711.949 149.385 715.139 148.222 719.054 148.222C721.168 148.222 723.17 148.511 725.057 149.087C726.962 149.647 728.762 150.503 730.458 151.657L727.181 159.181C725.992 158.167 724.769 157.407 723.51 156.9C722.27 156.376 721.037 156.113 719.814 156.113C718.556 156.113 717.533 156.419 716.747 157.031C715.96 157.625 715.567 158.394 715.567 159.338C715.567 160.299 715.908 161.068 716.589 161.645C717.288 162.222 718.625 162.772 720.6 163.297L721.072 163.428C725.337 164.581 728.142 165.848 729.488 167.229C730.397 168.173 731.087 169.309 731.559 170.637C732.031 171.948 732.267 173.407 732.267 175.015C732.267 179.088 730.93 182.365 728.256 184.846C725.582 187.311 722.016 188.543 717.559 188.543C714.885 188.543 712.447 188.089 710.245 187.18C708.06 186.271 705.954 184.846 703.927 182.906L708.646 175.12ZM738.401 187.521V149.14H748.966V187.521H738.401ZM757.434 187.521V149.14H765.43C771.39 149.14 775.602 149.42 778.067 149.979C780.548 150.538 782.724 151.473 784.594 152.784C787.024 154.479 788.868 156.655 790.126 159.312C791.384 161.951 792.014 164.966 792.014 168.356C792.014 171.747 791.384 174.771 790.126 177.427C788.868 180.066 787.024 182.234 784.594 183.929C782.742 185.222 780.627 186.149 778.25 186.708C775.873 187.25 772.185 187.521 767.187 187.521H765.43H757.434ZM767.79 178.922H769.546C773.653 178.922 776.651 178.083 778.538 176.405C780.426 174.709 781.37 172.027 781.37 168.356C781.37 164.686 780.426 161.995 778.538 160.282C776.651 158.569 773.653 157.713 769.546 157.713H767.79V178.922ZM807.796 173.18H818.204L814.297 160.518C814.175 160.133 814.009 159.513 813.799 158.656C813.59 157.8 813.319 156.699 812.987 155.353C812.759 156.297 812.532 157.197 812.305 158.053C812.095 158.91 811.877 159.731 811.65 160.518L807.796 173.18ZM793.141 187.521L806.38 149.14H819.488L832.754 187.521H822.346L820.406 180.652H805.541L803.549 187.521H793.141ZM836.45 187.521V149.14H844.446C850.406 149.14 854.618 149.42 857.082 149.979C859.564 150.538 861.74 151.473 863.61 152.784C866.04 154.479 867.884 156.655 869.142 159.312C870.4 161.951 871.029 164.966 871.029 168.356C871.029 171.747 870.4 174.771 869.142 177.427C867.884 180.066 866.04 182.234 863.61 183.929C861.758 185.222 859.643 186.149 857.266 186.708C854.889 187.25 851.201 187.521 846.203 187.521H844.446H836.45ZM846.806 178.922H848.562C852.669 178.922 855.667 178.083 857.554 176.405C859.442 174.709 860.386 172.027 860.386 168.356C860.386 164.686 859.442 161.995 857.554 160.282C855.667 158.569 852.669 157.713 848.562 157.713H846.806V178.922ZM540.914 245.521H531.135L528.881 228.926C528.723 227.755 528.575 226.453 528.435 225.019C528.313 223.586 528.199 222.022 528.094 220.327C527.85 221.952 527.369 223.979 526.652 226.409C526.495 226.916 526.381 227.291 526.312 227.536L521.095 245.521H514.121L508.904 227.536C508.834 227.291 508.729 226.916 508.589 226.409C507.855 223.979 507.375 221.961 507.147 220.353C507.043 221.804 506.92 223.245 506.78 224.679C506.641 226.094 506.475 227.51 506.282 228.926L504.028 245.521H494.301L500.226 207.14H510.582L516.376 226.933C516.411 227.073 516.48 227.3 516.585 227.615C517.127 229.38 517.468 230.892 517.608 232.15C517.678 231.469 517.809 230.717 518.001 229.896C518.193 229.057 518.455 228.052 518.787 226.881L524.634 207.14H535.015L540.914 245.521ZM585.954 226.409C585.954 229.17 585.447 231.757 584.433 234.169C583.419 236.581 581.942 238.739 580.002 240.644C578.045 242.532 575.808 243.991 573.291 245.022C570.774 246.036 568.161 246.543 565.452 246.543C562.708 246.543 560.078 246.036 557.561 245.022C555.062 243.991 552.86 242.532 550.955 240.644C548.98 238.739 547.477 236.572 546.446 234.143C545.432 231.713 544.925 229.135 544.925 226.409C544.925 223.665 545.432 221.087 546.446 218.675C547.477 216.246 548.98 214.078 550.955 212.173C552.86 210.286 555.062 208.835 557.561 207.821C560.078 206.79 562.708 206.275 565.452 206.275C568.179 206.275 570.801 206.79 573.317 207.821C575.852 208.835 578.08 210.286 580.002 212.173C581.925 214.061 583.393 216.219 584.407 218.649C585.438 221.078 585.954 223.665 585.954 226.409ZM565.452 237.682C568.354 237.682 570.748 236.616 572.636 234.483C574.541 232.351 575.493 229.66 575.493 226.409C575.493 223.193 574.532 220.51 572.61 218.36C570.687 216.211 568.301 215.136 565.452 215.136C562.551 215.136 560.148 216.211 558.243 218.36C556.355 220.493 555.412 223.175 555.412 226.409C555.412 229.695 556.347 232.395 558.217 234.51C560.087 236.624 562.499 237.682 565.452 237.682ZM592.534 245.521V207.14H600.53C606.49 207.14 610.702 207.42 613.166 207.979C615.648 208.538 617.824 209.473 619.694 210.784C622.123 212.479 623.967 214.655 625.226 217.312C626.484 219.951 627.113 222.966 627.113 226.356C627.113 229.747 626.484 232.771 625.226 235.427C623.967 238.066 622.123 240.234 619.694 241.929C617.841 243.222 615.727 244.149 613.35 244.708C610.973 245.25 607.285 245.521 602.286 245.521H600.53H592.534ZM602.889 236.922H604.646C608.753 236.922 611.75 236.083 613.638 234.405C615.526 232.709 616.469 230.027 616.469 226.356C616.469 222.686 615.526 219.995 613.638 218.282C611.75 216.569 608.753 215.713 604.646 215.713H602.889V236.922ZM633.693 245.521V207.14H657.209V215.555H643.892V222.214H656.449V230.446H643.892V236.922H657.209V245.521H633.693ZM664.157 245.521V207.14H674.617V236.555H687.62V245.521H664.157ZM731.192 226.409C731.192 229.17 730.685 231.757 729.671 234.169C728.658 236.581 727.181 238.739 725.241 240.644C723.283 242.532 721.046 243.991 718.529 245.022C716.013 246.036 713.4 246.543 710.691 246.543C707.947 246.543 705.316 246.036 702.8 245.022C700.3 243.991 698.098 242.532 696.193 240.644C694.218 238.739 692.715 236.572 691.684 234.143C690.67 231.713 690.163 229.135 690.163 226.409C690.163 223.665 690.67 221.087 691.684 218.675C692.715 216.246 694.218 214.078 696.193 212.173C698.098 210.286 700.3 208.835 702.8 207.821C705.316 206.79 707.947 206.275 710.691 206.275C713.417 206.275 716.039 206.79 718.556 207.821C721.09 208.835 723.318 210.286 725.241 212.173C727.163 214.061 728.631 216.219 729.645 218.649C730.676 221.078 731.192 223.665 731.192 226.409ZM710.691 237.682C713.592 237.682 715.986 236.616 717.874 234.483C719.779 232.351 720.732 229.66 720.732 226.409C720.732 223.193 719.77 220.51 717.848 218.36C715.925 216.211 713.54 215.136 710.691 215.136C707.789 215.136 705.386 216.211 703.481 218.36C701.594 220.493 700.65 223.175 700.65 226.409C700.65 229.695 701.585 232.395 703.455 234.51C705.325 236.624 707.737 237.682 710.691 237.682Z" fill="#8D8D8D"/>
<defs>
<clipPath id="clip0_139_738">
<rect width="357.783" height="357.783" fill="white" transform="translate(0.012207 0.012207)"/>
</clipPath>
</defs>
</svg>
