<svg width="876" height="359" viewBox="0 0 876 359" fill="none" xmlns="http://www.w3.org/2000/svg">
<g clip-path="url(#clip0_74_11562)">
<path d="M108.147 85.0476C110.929 85.4356 113.47 86.8449 115.281 89.0045C116.087 89.959 116.661 91.089 116.958 92.3052C117.256 93.5214 117.268 94.7904 116.993 96.0121C116.84 96.7935 116.57 97.5469 116.191 98.2462C111.471 110.7 106.525 123.016 101.353 135.195C96.1806 147.374 90.5777 159.421 84.5437 171.337C80.805 178.754 76.6364 185.945 72.0597 192.871C67.4881 199.768 62.8482 206.671 58.14 213.579C57.8635 213.983 55.0457 218.963 54.5107 219.672C53.2143 222.081 51.0463 223.896 48.4559 224.741C46.4081 225.41 44.1876 225.302 42.2139 224.436C40.0153 223.513 38.2226 221.821 37.1668 219.672C36.2305 218.182 30.3719 184.921 29.7031 177.501C29.0343 170.08 28.3566 162.651 27.6878 155.069C27.2895 148.304 27.1201 141.638 27.1795 135.07C27.239 128.502 27.5362 121.904 28.0713 115.276C28.3215 111.203 28.7738 107.146 29.4267 103.118C30.0984 99.0627 30.904 95.07 31.8432 91.14C32.1107 90.0633 32.4139 88.9776 32.7349 87.8919C33.0633 86.8578 33.4473 85.8424 33.8853 84.8502C34.5472 83.3682 35.5136 82.0441 36.7209 80.9651C37.1973 80.5107 37.7872 80.1947 38.4279 80.051C39.0686 79.9072 39.736 79.9409 40.3591 80.1486C41.0409 80.3679 41.6657 80.7368 42.1885 81.2287C42.7112 81.7206 43.1189 82.3232 43.3821 82.9929C43.6482 83.7951 43.8509 84.6171 43.9884 85.4514L44.3897 87.8919L52.2636 148.187C52.6648 151.166 53.0661 154.118 53.4674 157.025C53.8687 159.933 54.2788 162.947 54.6801 166.061C57.2304 160.773 59.754 155.527 62.2508 150.323C64.7476 145.119 67.2682 139.873 69.8126 134.585C75.8369 121.646 82.7836 109.163 90.5985 97.2323C92.3675 94.2199 94.3934 91.3679 96.6533 88.7084C99.6256 85.4544 103.457 84.2341 108.147 85.0476Z" fill="#00086E"/>
<path d="M112.259 160.819C112.464 159.572 112.758 157.813 113.32 155.525C113.32 155.525 113.659 154.17 114.051 152.834C118.581 137.102 123.661 121.687 129.291 106.589C134.92 91.4912 141.097 76.4652 147.82 61.5109C149.854 57.1024 152.044 52.8165 154.392 48.6533C156.741 44.49 159.163 40.3596 161.66 36.2622C162.457 34.6674 163.529 33.2274 164.825 32.0092C166.157 30.753 167.524 29.4969 168.927 28.2407C171.27 26.0335 174.084 25.7164 177.372 27.2896C178.886 28.0574 180.153 29.2411 181.026 30.7037C181.898 32.1663 182.341 33.8478 182.303 35.5533C182.143 36.4506 181.982 37.4824 181.831 38.5053C181.66 39.5804 181.424 40.6441 181.126 41.6906C179.402 46.7212 177.8 51.8714 176.32 57.1413C174.839 62.4112 173.157 67.5644 171.273 72.601C166.428 86.6101 162.245 100.73 158.726 114.96C155.207 129.191 152.119 143.547 149.461 158.029C148.11 166.375 144.99 174.332 140.312 181.357C139.536 182.299 138.752 183.242 137.976 184.193C137.2 185.144 136.406 185.987 135.631 186.786C131.243 190.716 126.161 191.739 120.382 189.854C117.636 188.867 115.228 187.107 113.445 184.785C111.971 182.732 111.049 180.33 110.77 177.813C110.641 176.757 110.599 175.691 110.645 174.628C110.68 173.237 110.787 169.998 112.259 160.819Z" fill="#00086E"/>
<path d="M260.23 42.0056C262.567 42.3233 264.702 43.5033 266.223 45.3164C266.898 46.1136 267.378 47.0586 267.626 48.0758C267.874 49.0931 267.882 50.1546 267.649 51.1755C267.521 51.8279 267.296 52.4571 266.981 53.0418C263.039 63.438 258.908 73.7295 254.586 83.9163C250.264 94.1032 245.57 104.185 240.505 114.163C237.373 120.343 233.886 126.335 230.063 132.108C226.238 137.877 216.768 152.099 216.492 152.745C216.215 153.391 212.47 158.128 210.33 158.774C208.615 159.332 206.756 159.24 205.104 158.514C203.269 157.742 201.774 156.326 200.895 154.53C199.915 152.664 195.206 125.576 194.653 119.322C193.209 103.028 193.209 104.804 192.968 100.578C192.504 92.6197 192.522 86.5453 192.549 83.8625C192.629 75.6975 193.111 69.6141 193.307 67.3261C193.753 62.0413 194.252 58.6586 194.484 57.1422C194.484 57.1422 195.179 52.656 196.508 47.1379C196.508 47.1379 196.776 46.0163 197.266 44.4461C197.499 43.5782 197.797 42.7294 198.158 41.9069C198.439 41.3037 198.773 40.7271 199.157 40.1841C199.531 39.6138 199.991 39.1053 200.521 38.6767C200.945 38.2979 201.457 38.0325 202.01 37.9051C202.524 37.8088 203.055 37.8428 203.553 38.0038C203.867 38.0937 204.167 38.2266 204.444 38.3986C205.176 38.8759 205.748 39.5638 206.085 40.3725C206.325 41.0318 206.495 41.7144 206.593 42.4093C206.825 43.6565 206.923 44.4461 206.923 44.4461C207.441 48.5286 212.39 86.7696 213.504 94.8359C214.066 98.9005 214.218 99.4119 214.512 102.22C215.092 107.667 214.904 109.632 215.528 109.766C216.59 110.009 218.4 104.49 221.851 96.6215C223.09 93.7682 224.785 90.3407 228.173 83.4677C239.23 61.0363 247.309 48.403 250.6 45.128C251.553 44.0962 252.694 43.2585 253.961 42.6606C255.933 41.8267 258.112 41.6201 260.204 42.0684" fill="#00086E"/>
<path d="M350.32 13.5172C351.92 14.108 353.377 15.0354 354.594 16.2376C355.81 17.4398 356.757 18.8891 357.373 20.4888C358.011 22.0928 358.328 23.8075 358.307 25.5349C358.285 27.2623 357.926 28.9686 357.248 30.556C355.958 33.5678 353.571 35.9689 350.578 37.2675C347.502 38.6403 339.548 37.3572 336.98 37.0073C332.799 36.653 328.596 36.653 324.415 37.0073C322.191 36.9298 319.983 37.4173 317.995 38.425C316.033 39.6232 314.368 41.2557 313.126 43.1983C312.364 44.1786 311.679 45.2165 311.075 46.3029C310.389 48.537 309.791 50.7891 309.292 53.0143C308.792 55.2395 308.266 57.5724 307.758 59.977C306.385 65.8391 305.059 71.6922 303.781 77.5363C302.497 83.3864 299.456 99.5639 299.322 100.766C300.687 100.937 301.891 101.116 302.889 101.287C304.014 101.481 305.128 101.739 306.224 102.058C312.55 103.255 315.971 106.524 316.488 111.865C316.999 117.033 314.52 120.733 309.051 122.964C306.686 123.987 304.24 124.809 301.739 125.423C299.251 126.024 296.647 126.751 293.91 127.612C292.992 129.841 292.221 132.128 291.6 134.458C290.744 137.449 289.933 140.673 289.166 144.131C288.399 147.588 287.757 151.075 287.24 154.593C286.731 158.119 286.348 161.259 286.214 164.014C287.106 163.843 289.977 163.924 290.833 163.754C295.097 162.722 299.426 161.988 303.79 161.555C308.153 161.137 312.555 160.837 316.996 160.658C318.878 160.658 320.804 160.748 322.775 160.909C324.745 161.071 326.662 161.349 328.544 161.69C330.342 161.998 332.051 162.703 333.546 163.754C335.013 164.8 336.274 166.111 337.265 167.621C338.168 168.719 338.8 170.016 339.11 171.407C339.42 172.798 339.399 174.243 339.048 175.624C338.71 177.073 338.053 178.428 337.128 179.589C336.202 180.75 335.03 181.688 333.698 182.336C332.054 183.344 330.241 184.043 328.348 184.399C322.195 185.44 316.081 186.517 310.005 187.629C303.933 188.751 263.27 189.657 260.363 189.828C257.799 190.048 255.218 189.699 252.802 188.806C250.386 187.913 248.194 186.498 246.381 184.66C242.605 180.99 240.371 176.003 240.139 170.725C239.961 168.202 240.22 165.667 240.906 163.233C241.625 160.744 242.568 158.326 243.724 156.01C248.637 145.974 253.004 135.676 256.805 125.163C260.568 114.754 264.331 104.215 268.094 93.5433C270.472 86.6584 272.696 79.7794 274.764 72.9065C276.833 66.0335 279.057 59.2353 281.435 52.5119C281.653 51.8092 281.912 51.1201 282.21 50.4482C284.773 41.3321 288.108 33.9327 292.215 28.2501C300.08 17.2438 310.597 11.5611 323.764 11.2022C329.277 10.8522 334.808 10.8942 340.315 11.3279C344.845 11.7585 348.221 12.4913 350.445 13.5261" fill="#00086E"/>
<path d="M128.774 238.881C128.848 240.521 128.768 242.165 128.533 243.789C127.659 249.855 126.767 255.878 125.858 261.86C124.948 267.842 124.057 273.823 123.183 279.805C122.713 283.31 122.335 286.801 122.05 290.276C121.765 293.751 121.429 297.281 121.043 300.864C120.882 301.976 120.748 303.116 120.623 304.273C120.499 305.431 120.329 306.606 120.088 307.799C119.537 309.916 118.332 311.801 116.646 313.183C115.857 313.896 114.913 314.414 113.89 314.695C112.866 314.975 111.792 315.01 110.752 314.798C109.717 314.581 108.745 314.128 107.911 313.475C107.076 312.822 106.401 311.985 105.937 311.03C105.395 310.175 104.975 309.247 104.688 308.275C104.407 307.262 104.346 306.2 104.51 305.162C104.671 304.049 104.813 302.945 104.929 301.869C105.045 300.792 105.188 299.697 105.348 298.576C105.824 296.35 106.299 294.137 106.775 291.936C107.251 289.735 107.765 287.522 108.318 285.296V284.22C109.031 280.87 109.944 276.402 111.055 270.815C109.944 274.404 108.636 278.393 107.132 282.784C105.674 287.052 103.965 291.229 102.013 295.292C100.304 298.923 98.2335 302.371 95.8337 305.583C93.6162 308.49 91.277 310.225 88.8158 310.787C88.2795 310.97 87.7142 311.053 87.1483 311.03C86.7077 311.049 86.2665 311.007 85.8375 310.904C84.9873 310.755 84.182 310.413 83.4822 309.905C82.7824 309.396 82.2066 308.735 81.798 307.97C80.7605 306.099 80.0743 304.052 79.7738 301.931C79.3619 299.321 79.1829 296.678 79.2388 294.036C79.2388 291.164 79.435 288.284 79.7114 285.413C79.9878 282.542 80.3267 279.832 80.728 277.275C81.1292 274.718 81.5216 272.537 81.9139 270.698L75.1369 288.051C74.7386 289.486 74.3433 290.922 73.9509 292.358C73.5496 293.793 73.1573 295.274 72.756 296.781C72.3636 298.145 71.9624 299.473 71.57 300.792C71.1777 302.111 70.7407 303.403 70.2592 304.686C69.2375 307.937 67.3938 310.865 64.9089 313.183C64.0329 314.086 62.8367 314.602 61.5828 314.619C61.0911 314.523 60.625 314.324 60.2148 314.035C59.8046 313.746 59.4594 313.373 59.2019 312.941C58.5208 311.821 58.1512 310.538 58.1318 309.226C58.1318 308.275 58.1318 307.315 58.2478 306.355L58.4885 303.484C58.8006 302.371 59.0771 301.312 59.3178 300.316C59.5586 299.32 59.835 298.342 60.156 297.382C61.5055 293.153 62.8134 288.966 64.0796 284.821C65.3458 280.675 66.6537 276.527 68.0031 272.376C69.1921 268.703 70.5 265.093 71.9267 261.546C73.3535 257.999 74.8605 254.508 76.4477 251.075C77.3929 248.922 78.4273 246.822 79.5331 244.794C80.6388 242.766 81.798 240.792 82.984 238.872C83.6974 237.84 85.249 235.84 85.249 235.759C85.6045 235.282 86.0462 234.877 86.5509 234.566C88.2825 233.708 90.2374 233.416 92.1419 233.731C93.3217 234.202 94.3364 235.013 95.0579 236.064C95.7979 237.17 96.1147 238.509 95.9496 239.832C95.7058 243.26 95.5067 246.352 95.3521 249.11C95.1916 251.856 94.9954 255.014 94.7636 258.558C94.5317 262.102 94.2821 265.799 94.0502 269.63C93.97 270.743 93.9075 271.802 93.8719 272.798C93.8362 273.793 93.7649 274.816 93.6935 275.848C95.1916 272.501 96.7254 269.11 98.268 265.682C99.8107 262.255 101.38 258.935 102.967 255.75C104.555 252.717 106.002 250.043 107.31 247.728C108.612 245.413 109.86 243.386 111.055 241.627C114.539 236.602 117.788 233.65 120.802 232.771C121.327 232.538 121.895 232.415 122.469 232.412H122.826C124.055 232.48 125.236 232.917 126.214 233.668C127.211 234.439 127.941 235.507 128.301 236.719L128.417 236.961C128.65 237.571 128.771 238.219 128.774 238.872" fill="#00086E"/>
<path d="M164.299 247.126C164.631 252.582 164.205 258.057 163.033 263.393C161.813 268.81 159.938 274.056 157.451 279.015C156.516 280.875 155.314 282.586 153.884 284.093C152.478 285.571 150.989 286.967 149.425 288.274C148.84 288.74 148.179 289.101 147.472 289.342C146.501 289.699 145.488 289.928 144.458 290.024C143.253 290.134 142.04 290.119 140.838 289.979C139.53 289.836 138.252 289.491 137.048 288.956C135.87 288.475 134.781 287.795 133.829 286.946C132.928 286.148 132.098 285.271 131.35 284.326C130.698 283.522 130.125 282.657 129.638 281.742C129.273 281.101 128.997 280.413 128.818 279.697C128.392 277.766 128.094 275.808 127.926 273.838C127.769 271.818 127.907 269.787 128.336 267.808C129.359 262.526 131.056 257.399 133.383 252.555C135.737 247.763 138.738 243.321 142.3 239.356C143.102 238.442 143.96 237.579 144.869 236.772C145.761 235.981 146.728 235.28 147.758 234.681C148.95 233.911 150.275 233.369 151.663 233.084C153.012 232.839 154.395 232.854 155.739 233.129C155.792 233.129 155.819 233.129 155.819 233.129C155.819 233.129 155.819 233.174 155.899 233.174C156.525 233.293 157.128 233.514 157.683 233.829C158.87 234.434 159.947 235.238 160.866 236.207C161.8 237.25 162.519 238.47 162.979 239.796C163.419 240.955 163.733 242.158 163.916 243.385C164.112 244.614 164.254 245.861 164.37 247.117M147.134 273.685C149.537 269.518 151.423 265.07 152.751 260.442C154.064 255.835 154.857 251.095 155.114 246.31C155.169 245.887 155.184 245.461 155.159 245.036C155.159 244.623 155.088 244.201 155.034 243.762C155.059 243.263 154.977 242.764 154.794 242.3C154.611 241.835 154.331 241.416 153.973 241.07C153.482 241.097 153.004 241.237 152.576 241.48C152.147 241.722 151.78 242.061 151.503 242.47C150.916 243.056 150.374 243.686 149.88 244.354C147.222 248.18 144.994 252.29 143.237 256.61C141.503 260.936 140.284 265.454 139.607 270.069C139.5 270.966 139.411 271.864 139.322 272.761C139.227 273.656 139.227 274.558 139.322 275.453C139.429 276.35 139.59 277.247 139.813 278.279C139.838 278.695 139.993 279.092 140.256 279.414C140.518 279.736 140.875 279.967 141.275 280.073C141.529 280.125 141.791 280.107 142.036 280.021C142.28 279.936 142.498 279.787 142.666 279.589C143.094 279.149 143.477 278.737 143.798 278.351C144.449 277.663 145.045 276.925 145.582 276.143C146.099 275.381 146.598 274.582 147.089 273.766" fill="#00086E"/>
<path d="M196.428 300.792C195.784 300.986 195.165 301.254 194.582 301.591C193.524 302.129 192.275 302.727 190.837 303.385C189.41 304.04 187.867 304.686 186.235 305.296C184.604 305.906 183.168 306.391 181.937 306.723C181.367 306.884 170.274 309.684 168.793 309.935C167.39 310.185 165.944 310.036 164.62 309.504C163.252 308.912 162.051 307.987 161.125 306.813C160.039 305.445 159.301 303.831 158.976 302.111C158.248 298.51 158.557 294.774 159.867 291.344C160.527 289.209 161.258 287.127 162.079 285.108C162.899 283.089 163.72 281.008 164.531 278.827L174.483 250.779C174.976 249.296 175.487 247.8 176.016 246.293C176.545 244.785 177.057 243.239 177.55 241.654C177.88 240.757 178.228 239.86 178.593 238.962C178.954 238.088 179.252 237.188 179.485 236.271C180.016 234.148 180.922 232.139 182.16 230.34C183.232 228.853 184.565 227.576 186.093 226.571C187.606 225.607 189.266 224.898 191.006 224.472C192.823 224.026 194.671 223.726 196.535 223.574C199.207 223.379 201.889 223.777 204.391 224.741C207.472 225.844 210.369 227.408 212.987 229.38C215.85 231.519 218.375 234.081 220.477 236.979C222.704 240.023 224.291 243.491 225.141 247.172C228.411 261.181 225.629 273.743 216.795 284.857C214.967 287.107 212.93 289.177 210.713 291.039C208.543 292.833 206.272 294.562 203.9 296.225C202.748 296.967 201.557 297.647 200.333 298.262C198.963 298.963 197.648 299.77 196.401 300.675M210.526 263.107C211.49 260.566 211.948 257.859 211.872 255.14C211.778 252.421 211.018 249.767 209.661 247.414C208.136 244.675 206.14 242.23 203.767 240.192C201.454 238.244 198.721 236.867 195.786 236.172C195.396 236.011 194.969 235.967 194.555 236.046C194.145 236.136 193.663 236.217 193.084 236.297C192.674 239.839 192.305 243.215 191.978 246.427C191.651 249.624 191.16 252.802 190.507 255.947C189.532 260.96 188.45 265.835 187.261 270.573C186.072 275.31 184.883 280.095 183.694 284.929C183.531 285.553 183.447 286.195 183.444 286.84C183.433 287.57 183.352 288.297 183.204 289.011C185.317 287.915 187.366 286.696 189.339 285.359C191.633 283.84 193.886 282.213 196.098 280.478C198.23 278.812 200.277 277.039 202.233 275.167C203.811 273.699 205.25 272.086 206.531 270.348C207.362 269.266 208.122 268.13 208.805 266.948C209.502 265.744 210.099 264.483 210.588 263.179" fill="#00086E"/>
<path d="M255.085 256.323C255.612 256.519 256.092 256.825 256.494 257.221C256.895 257.617 257.208 258.093 257.413 258.62C257.835 259.689 257.819 260.883 257.368 261.94C256.942 262.934 256.154 263.727 255.165 264.156C254.149 264.614 251.527 264.156 250.707 264.066C249.327 263.955 247.94 263.955 246.56 264.066C245.827 264.041 245.1 264.205 244.447 264.542C243.796 264.933 243.243 265.47 242.833 266.112C242.583 266.436 242.356 266.778 242.155 267.135C241.932 267.88 241.736 268.615 241.567 269.351C241.397 270.087 241.228 270.859 241.059 271.648C240.607 273.586 240.17 275.518 239.748 277.444C239.326 279.371 238.889 281.33 238.437 283.321C238.378 283.587 238.348 283.857 238.348 284.129C238.342 284.456 238.316 284.783 238.267 285.107L239.445 285.278C239.817 285.345 240.186 285.431 240.55 285.538C242.637 285.933 243.766 287.009 243.939 288.768C244.111 290.526 243.291 291.75 241.478 292.438C240.699 292.775 239.894 293.045 239.07 293.245C238.25 293.443 237.385 293.685 236.484 293.972C236.181 294.705 235.928 295.457 235.726 296.224C235.441 297.22 235.173 298.288 234.924 299.418C234.674 300.549 234.451 301.706 234.281 302.873C234.112 304.039 234.005 305.071 233.943 305.977C234.228 305.923 235.191 305.977 235.467 305.896C236.876 305.556 238.306 305.313 239.748 305.17C241.186 305.026 242.64 304.927 244.108 304.874C244.703 304.874 245.336 304.9 246.008 304.954C246.659 305.017 247.292 305.098 247.916 305.215C248.509 305.316 249.073 305.549 249.566 305.896C250.051 306.24 250.469 306.672 250.796 307.171C251.093 307.533 251.301 307.961 251.403 308.419C251.505 308.877 251.499 309.353 251.385 309.808C251.271 310.288 251.052 310.737 250.743 311.12C250.434 311.504 250.044 311.813 249.601 312.025C249.052 312.358 248.448 312.589 247.818 312.707C245.785 313.048 243.769 313.403 241.772 313.774C239.766 314.142 229.011 314.555 228.138 314.492C227.264 314.429 222.047 314.044 220.772 312.796C219.521 311.586 218.781 309.938 218.703 308.193C218.641 307.363 218.726 306.527 218.953 305.726C219.175 304.904 219.474 304.105 219.845 303.339C221.459 300.023 222.9 296.624 224.16 293.155C225.403 289.728 226.642 286.25 227.879 282.72C228.676 280.447 229.41 278.177 230.081 275.91C230.753 273.643 231.487 271.4 232.284 269.181C232.356 268.948 232.442 268.72 232.543 268.499C233.206 265.882 234.323 263.403 235.842 261.177C236.99 259.457 238.538 258.046 240.352 257.065C242.165 256.085 244.19 255.565 246.248 255.551C248.069 255.437 249.896 255.452 251.715 255.596C252.86 255.661 253.989 255.906 255.058 256.323" fill="#00086E"/>
<path d="M275.727 295.551L279.241 296.547C280.355 296.861 281.461 297.193 282.549 297.534C284.645 298.287 286.686 299.187 288.657 300.225C290.001 300.843 291.185 301.764 292.117 302.917C292.688 303.433 293.112 304.091 293.346 304.826C293.581 305.561 293.616 306.345 293.45 307.098C293.284 307.851 292.922 308.547 292.401 309.113C291.88 309.679 291.219 310.095 290.485 310.32L288.345 310.948L286.009 311.369C285.188 311.504 284.413 311.648 283.664 311.782C281.5 312.129 279.38 312.458 277.306 312.769C275.231 313.08 273.109 313.445 270.939 313.864C269.495 314.139 268.03 314.28 266.56 314.285C264.97 314.352 263.387 314.026 261.95 313.334C260.104 312.437 257.331 308.516 256.983 307.511C256.539 306.163 256.264 304.765 256.163 303.348C256.128 302.116 256.254 300.886 256.538 299.687C256.775 298.646 257.165 297.223 257.706 295.416C259.412 289.716 261.16 284.033 262.949 278.368C264.738 272.704 266.724 267.093 268.906 261.536C270.813 256.385 273.202 251.428 276.039 246.731C276.583 245.968 277.092 245.215 277.564 244.488C278.054 243.736 278.599 243.022 279.196 242.353C279.927 241.496 280.842 240.818 281.871 240.37C282.333 240.134 282.852 240.039 283.366 240.095C283.881 240.15 284.368 240.355 284.769 240.684C285.216 241.016 285.568 241.46 285.791 241.971C286.015 242.483 286.102 243.044 286.044 243.6C286.042 244.094 285.973 244.586 285.839 245.062C285.706 245.547 285.563 246.031 285.429 246.525C283.117 254.026 281.199 261.566 279.678 269.145C278.156 276.723 276.919 284.404 275.968 292.186C275.897 292.742 275.825 294.968 275.763 295.515" fill="#00086E"/>
<path d="M337.872 256.574C338.293 262.881 337.761 269.216 336.293 275.362C334.754 281.654 332.407 287.716 329.311 293.397C328.089 295.613 326.565 298.35 324.799 300.055C322.333 302.117 319.64 303.887 316.774 305.331C315.554 305.735 314.291 305.988 313.011 306.084C311.501 306.223 309.981 306.223 308.472 306.084C306.846 305.916 305.252 305.517 303.737 304.9C302.275 304.354 300.913 303.569 299.706 302.576C298.585 301.663 297.546 300.651 296.603 299.552C295.8 298.624 295.084 297.624 294.463 296.565C294.01 295.832 293.665 295.037 293.437 294.205C292.904 291.977 292.532 289.713 292.323 287.431C292.124 285.1 292.296 282.753 292.831 280.477C294.123 274.345 296.247 268.422 299.144 262.873C302.109 257.283 305.85 252.146 310.255 247.619C311.262 246.559 312.334 245.564 313.465 244.64C314.592 243.721 315.805 242.912 317.086 242.227C320.078 240.402 323.638 239.762 327.073 240.432C327.135 240.432 327.171 240.432 327.171 240.477C327.171 240.522 327.171 240.531 327.269 240.531C328.051 240.668 328.809 240.922 329.516 241.285C330.98 241.979 332.323 242.906 333.493 244.03C334.658 245.22 335.568 246.637 336.168 248.194C336.709 249.518 337.1 250.9 337.337 252.312C337.577 253.73 337.765 255.174 337.898 256.619M316.372 287.242C319.357 282.483 321.718 277.356 323.399 271.989C325.034 266.685 326.028 261.202 326.36 255.659C326.415 255.152 326.418 254.641 326.368 254.133C326.368 253.658 326.288 253.173 326.217 252.671C326.244 252.083 326.14 251.496 325.911 250.954C325.683 250.412 325.336 249.929 324.897 249.539C324.301 249.569 323.719 249.728 323.191 250.007C322.662 250.286 322.201 250.678 321.839 251.154C321.106 251.83 320.423 252.559 319.796 253.335C316.496 257.713 313.71 262.462 311.495 267.485C309.328 272.458 307.803 277.689 306.956 283.052C306.822 284.129 306.706 285.151 306.599 286.13C306.502 287.154 306.52 288.187 306.653 289.207C306.802 290.306 307.008 291.396 307.268 292.473C307.323 292.962 307.53 293.421 307.857 293.786C308.185 294.152 308.618 294.405 309.096 294.51C309.41 294.568 309.733 294.547 310.036 294.448C310.34 294.349 310.614 294.176 310.835 293.945C311.37 293.433 311.851 292.967 312.261 292.518C313.055 291.724 313.786 290.869 314.446 289.961C315.097 289.064 315.721 288.166 316.337 287.215" fill="#00086E"/>
<path d="M64.8818 60.1565C64.1862 59.6361 63.4907 59.1157 62.8041 58.5773L64.4627 59.8694C58.2583 55.0286 52.5416 49.586 47.3952 43.6201C45.9328 41.9153 44.5179 40.1716 43.1506 38.3891L44.4347 40.0669L43.222 38.4609C42.7301 37.505 42.0024 36.6925 41.1086 36.1011C40.3222 35.3938 39.3716 34.8971 38.3443 34.6565C37.2856 34.3163 36.1558 34.2668 35.0717 34.5129C33.9837 34.5584 32.9276 34.896 32.0131 35.4909C30.1665 36.5847 28.8141 38.3572 28.2411 40.4348L27.9468 42.6331C27.9407 44.1003 28.3289 45.5419 29.0704 46.8053C34.8535 54.7452 41.5226 61.9915 48.9468 68.4023C51.4258 70.5018 53.985 72.5117 56.5799 74.4497C57.4962 75.0407 58.5512 75.3781 59.6385 75.4278C60.7084 75.6232 61.808 75.5774 62.8582 75.2934C63.9083 75.0095 64.8827 74.4945 65.7111 73.7858C66.6003 73.2044 67.3276 72.4046 67.8244 71.4619C68.3746 70.508 68.7313 69.4538 68.8736 68.3603C69.016 67.2667 68.9412 66.1556 68.6537 65.0914L67.8244 63.1174C67.1121 61.8905 66.0989 60.868 64.8818 60.1475" fill="#00C9FF"/>
<path d="M92.2118 51.9473L84.1863 31.5168C82.8309 28.0534 81.4725 24.593 80.1112 21.1356C78.197 16.1588 76.2679 11.209 74.3239 6.28603C74.0876 5.23595 73.58 4.26722 72.8526 3.47762C72.2784 2.58075 71.4866 1.84582 70.552 1.34216C69.6356 0.751195 68.5806 0.413849 67.4934 0.364148C66.4028 0.117631 65.2664 0.170309 64.2029 0.516681C62.1394 1.09577 60.3787 2.45587 59.2896 4.31207L58.4603 6.28603C58.0679 7.72496 58.0679 9.24365 58.4603 10.6826L66.4857 31.1131C67.8352 34.5765 69.1906 38.0339 70.552 41.4853C72.484 46.4382 74.422 51.3881 76.366 56.3349C76.6023 57.385 77.1099 58.3537 77.8373 59.1433C78.4486 60.0243 79.2446 60.7597 80.169 61.2976C81.0934 61.8356 82.1238 62.163 83.1876 62.2568C84.2823 62.5124 85.4253 62.4659 86.4959 62.1222C88.5569 61.5428 90.3147 60.1825 91.4003 58.3268L92.2296 56.3529C92.622 54.9139 92.622 53.3952 92.2296 51.9563" fill="#00C9FF"/>
<path d="M325.316 331.487C326.449 332.814 327.554 334.178 328.624 335.56L327.34 333.891C332.173 340.211 336.214 347.106 339.37 354.42C339.87 355.361 340.601 356.158 341.492 356.735C342.273 357.467 343.233 357.978 344.274 358.216C345.333 358.556 346.463 358.606 347.547 358.359C348.635 358.318 349.693 357.98 350.605 357.381C352.448 356.289 353.797 354.52 354.368 352.446L354.663 350.257C354.668 348.791 354.283 347.351 353.548 346.085C350.527 339.073 346.689 332.447 342.116 326.345C340.449 324.111 338.737 321.913 336.917 319.786C335.35 318.298 333.276 317.469 331.121 317.469C328.966 317.469 326.892 318.298 325.325 319.786C323.79 321.339 322.925 323.438 322.917 325.627L323.212 327.826C323.592 329.203 324.32 330.458 325.325 331.469" fill="#00C9FF"/>
<path d="M194.332 210.689C198.645 210.633 202.771 208.915 205.862 205.889C208.77 202.714 210.461 198.602 210.633 194.287C210.446 190.043 209.064 185.647 205.862 182.686C202.803 179.612 198.656 177.886 194.332 177.886C190.009 177.886 185.862 179.612 182.803 182.686C181.245 184.124 180.087 185.946 179.441 187.971C178.427 189.902 177.941 192.069 178.032 194.252C178.219 198.496 179.601 202.892 182.803 205.853C185.899 208.871 190.022 210.587 194.332 210.653" fill="#00C9FF"/>
<path d="M306.216 341.877C308.341 341.849 310.374 341.001 311.896 339.509C313.324 337.941 314.157 335.918 314.25 333.793C314.237 331.652 313.392 329.601 311.896 328.078C311.15 327.326 310.265 326.73 309.29 326.323C308.316 325.916 307.271 325.707 306.216 325.707C305.16 325.707 304.115 325.916 303.141 326.323C302.166 326.73 301.281 327.326 300.535 328.078C299.767 328.785 299.195 329.682 298.877 330.68C298.378 331.638 298.138 332.712 298.181 333.793C298.192 335.935 299.037 337.987 300.535 339.509C302.06 340.998 304.091 341.845 306.216 341.877Z" fill="#00C9FF"/>
<path d="M29.3464 294.511C28.214 295.848 27.1082 297.202 26.0471 298.593L27.3312 296.924C22.4953 303.244 18.4521 310.139 15.293 317.453C14.7949 318.393 14.0677 319.189 13.1796 319.768C12.3906 320.494 11.4295 321.004 10.3885 321.249C9.32981 321.589 8.20004 321.639 7.11592 321.392C6.03119 321.344 4.9787 321.007 4.06625 320.414C2.22018 319.324 0.867602 317.555 0.294281 315.479L1.45606e-05 313.236C-0.0027397 311.772 0.385297 310.335 1.12358 309.073C4.14299 302.062 7.97735 295.436 12.5465 289.333C14.2229 287.099 15.935 284.892 17.7452 282.775C18.4722 281.979 19.395 281.391 20.4203 281.07C21.3942 280.554 22.4863 280.306 23.5859 280.352C24.684 280.301 25.776 280.542 26.7515 281.052C27.7769 281.373 28.6997 281.961 29.4267 282.757C30.963 284.308 31.8283 286.407 31.8343 288.598L31.5401 290.787C31.1519 292.203 30.3945 293.488 29.3464 294.511Z" fill="#00C9FF"/>
<path d="M48.4473 304.857C46.336 304.821 44.3175 303.977 42.8027 302.497C41.3727 300.932 40.5415 298.906 40.4575 296.782C40.4605 294.64 41.3033 292.586 42.8027 291.066C44.3281 289.579 46.3592 288.732 48.483 288.697C50.6088 288.722 52.6435 289.57 54.1632 291.066C55.5913 292.634 56.4248 294.657 56.5174 296.782C56.5043 298.923 55.6594 300.974 54.1632 302.497C52.6355 303.98 50.6052 304.823 48.483 304.857" fill="#00C9FF"/>
</g>
<path d="M496.707 133.866V108.241H501.38C503.224 108.241 504.577 108.341 505.441 108.539C506.316 108.737 507.074 109.064 507.716 109.519C508.521 110.103 509.146 110.902 509.589 111.917C510.032 112.932 510.254 114.058 510.254 115.295C510.254 117.734 509.572 119.525 508.206 120.669C506.841 121.801 504.682 122.367 501.73 122.367H499.035V133.866H496.707ZM499.035 120.319H500.627C503.451 120.319 505.347 119.963 506.316 119.251C507.296 118.528 507.786 117.267 507.786 115.47C507.786 114.712 507.675 114.017 507.454 113.387C507.232 112.746 506.899 112.174 506.456 111.672C506.001 111.159 505.382 110.797 504.601 110.587C503.819 110.377 502.494 110.272 500.627 110.272H499.035V120.319ZM527.11 132.466C528.627 132.466 530.062 132.186 531.416 131.626C532.769 131.066 533.989 130.249 535.074 129.175C536.136 128.09 536.947 126.859 537.507 125.482C538.079 124.094 538.364 122.635 538.364 121.106C538.364 119.566 538.084 118.113 537.524 116.748C536.964 115.371 536.147 114.134 535.074 113.037C534.012 111.964 532.798 111.147 531.433 110.587C530.08 110.027 528.638 109.747 527.11 109.747C525.593 109.747 524.163 110.027 522.821 110.587C521.48 111.147 520.266 111.964 519.181 113.037C518.107 114.146 517.29 115.383 516.73 116.748C516.17 118.102 515.89 119.554 515.89 121.106C515.89 122.647 516.17 124.105 516.73 125.482C517.29 126.847 518.107 128.078 519.181 129.175C520.254 130.261 521.456 131.083 522.786 131.643C524.117 132.192 525.558 132.466 527.11 132.466ZM540.832 121.106C540.832 122.915 540.488 124.636 539.8 126.27C539.111 127.892 538.119 129.339 536.824 130.611C535.506 131.894 534.018 132.874 532.361 133.551C530.704 134.216 528.953 134.549 527.11 134.549C525.266 134.549 523.516 134.216 521.859 133.551C520.213 132.874 518.737 131.894 517.43 130.611C516.124 129.315 515.126 127.863 514.437 126.252C513.761 124.63 513.422 122.915 513.422 121.106C513.422 119.274 513.761 117.547 514.437 115.925C515.126 114.292 516.124 112.827 517.43 111.532C518.714 110.26 520.178 109.297 521.824 108.644C523.469 107.991 525.231 107.664 527.11 107.664C529 107.664 530.768 107.996 532.413 108.661C534.07 109.315 535.541 110.272 536.824 111.532C538.131 112.827 539.123 114.292 539.8 115.925C540.488 117.547 540.832 119.274 540.832 121.106ZM548.324 110.272V119.741H550.669C552.84 119.741 554.351 119.397 555.203 118.708C556.066 118.008 556.498 116.824 556.498 115.155C556.498 113.393 556.054 112.139 555.168 111.392C554.281 110.645 552.781 110.272 550.669 110.272H548.324ZM561.556 133.866H558.721L549.724 121.649H548.324V133.866H545.996V108.241H550.704C553.481 108.241 555.558 108.819 556.935 109.974C558.324 111.129 559.018 112.88 559.018 115.225C559.018 117.221 558.423 118.79 557.233 119.934C556.054 121.077 554.427 121.649 552.35 121.649L561.556 133.866ZM497.38 153.429H507.83V172.123C507.83 174.871 507.9 176.848 508.04 178.056C508.18 179.246 508.416 180.244 508.749 181.049C509.151 182.029 509.852 182.782 510.849 183.307C511.847 183.815 513.063 184.069 514.499 184.069C515.934 184.069 517.142 183.815 518.122 183.307C519.12 182.782 519.828 182.029 520.248 181.049C520.581 180.244 520.817 179.246 520.957 178.056C521.097 176.848 521.167 174.871 521.167 172.123V169.497V153.429H531.591V173.75C531.591 177.969 531.337 181.084 530.829 183.097C530.322 185.092 529.464 186.799 528.256 188.217C526.944 189.775 525.141 190.947 522.848 191.735C520.555 192.505 517.772 192.89 514.499 192.89C511.208 192.89 508.416 192.505 506.123 191.735C503.848 190.947 502.045 189.775 500.715 188.217C499.525 186.799 498.667 185.092 498.142 183.097C497.634 181.084 497.38 177.969 497.38 173.75V169.76V153.429ZM539.572 191.866V153.429H549.68L564.199 173.199C564.479 173.602 564.934 174.415 565.564 175.641C566.212 176.848 566.921 178.292 567.691 179.973C567.481 178.38 567.324 176.962 567.219 175.719C567.131 174.477 567.087 173.374 567.087 172.411V153.429H577.143V191.866H567.087L552.568 172.017C552.271 171.615 551.798 170.81 551.151 169.602C550.52 168.377 549.829 166.942 549.076 165.296C549.286 166.907 549.435 168.333 549.523 169.576C549.628 170.819 549.68 171.921 549.68 172.884V191.866H539.572ZM585.676 191.866V153.429H596.256V191.866H585.676ZM615.738 191.866L599.617 153.429H610.749L618.442 174.932C618.512 175.159 618.652 175.711 618.862 176.586C619.089 177.444 619.378 178.607 619.728 180.078C620.008 178.905 620.271 177.846 620.516 176.901C620.761 175.956 620.945 175.299 621.067 174.932L628.708 153.429H639.84L623.719 191.866H615.738ZM642.964 191.866V153.429H666.515V161.857H653.177V168.526H665.753V176.77H653.177V183.255H666.515V191.866H642.964ZM673.472 191.866V153.429H684.42C688.709 153.429 691.693 153.63 693.373 154.033C695.071 154.418 696.533 155.074 697.758 156.002C699.141 157.052 700.2 158.391 700.935 160.019C701.687 161.647 702.064 163.441 702.064 165.401C702.064 168.377 701.329 170.801 699.858 172.674C698.406 174.529 696.279 175.763 693.478 176.376L703.954 191.866H692.113L683.292 176.822V191.866H673.472ZM683.292 171.597H685.234C687.492 171.597 689.138 171.212 690.17 170.442C691.221 169.672 691.746 168.464 691.746 166.819C691.746 164.894 691.256 163.528 690.275 162.723C689.313 161.901 687.685 161.489 685.392 161.489H683.292V171.597ZM709.678 179.448C711.235 181.215 712.767 182.537 714.272 183.412C715.795 184.287 717.309 184.725 718.814 184.725C720.215 184.725 721.361 184.349 722.254 183.596C723.164 182.843 723.619 181.889 723.619 180.734C723.619 179.456 723.225 178.476 722.438 177.794C721.667 177.093 719.908 176.376 717.16 175.641C713.397 174.625 710.737 173.304 709.179 171.676C707.621 170.048 706.842 167.817 706.842 164.981C706.842 161.305 708.067 158.312 710.518 156.002C712.986 153.674 716.18 152.51 720.101 152.51C722.219 152.51 724.223 152.799 726.113 153.377C728.021 153.937 729.824 154.794 731.522 155.949L728.24 163.485C727.05 162.469 725.824 161.708 724.564 161.2C723.322 160.675 722.088 160.413 720.862 160.413C719.602 160.413 718.578 160.719 717.79 161.332C717.003 161.927 716.609 162.697 716.609 163.642C716.609 164.605 716.95 165.375 717.633 165.953C718.333 166.53 719.672 167.082 721.65 167.607L722.123 167.738C726.393 168.893 729.203 170.162 730.55 171.545C731.461 172.49 732.152 173.628 732.624 174.958C733.097 176.271 733.333 177.732 733.333 179.343C733.333 183.421 731.994 186.703 729.316 189.188C726.638 191.656 723.068 192.89 718.604 192.89C715.926 192.89 713.485 192.435 711.279 191.525C709.091 190.615 706.982 189.188 704.952 187.245L709.678 179.448ZM739.477 191.866V153.429H750.058V191.866H739.477ZM758.538 191.866V153.429H766.546C772.514 153.429 776.733 153.709 779.201 154.269C781.686 154.829 783.865 155.766 785.738 157.078C788.171 158.776 790.018 160.955 791.278 163.616C792.538 166.259 793.168 169.278 793.168 172.674C793.168 176.07 792.538 179.098 791.278 181.758C790.018 184.401 788.171 186.571 785.738 188.269C783.883 189.565 781.765 190.492 779.385 191.052C777.004 191.595 773.311 191.866 768.305 191.866H766.546H758.538ZM768.909 183.255H770.668C774.781 183.255 777.783 182.414 779.673 180.734C781.564 179.036 782.509 176.35 782.509 172.674C782.509 168.998 781.564 166.303 779.673 164.587C777.783 162.872 774.781 162.014 770.668 162.014H768.909V183.255ZM808.974 177.505H819.397L815.485 164.824C815.362 164.439 815.196 163.817 814.986 162.96C814.776 162.102 814.505 160.999 814.172 159.651C813.945 160.597 813.717 161.498 813.49 162.356C813.28 163.213 813.061 164.036 812.833 164.824L808.974 177.505ZM794.297 191.866L807.556 153.429H820.683L833.968 191.866H823.545L821.602 184.987H806.716L804.72 191.866H794.297ZM837.67 191.866V153.429H845.678C851.647 153.429 855.865 153.709 858.333 154.269C860.818 154.829 862.998 155.766 864.871 157.078C867.303 158.776 869.15 160.955 870.41 163.616C871.671 166.259 872.301 169.278 872.301 172.674C872.301 176.07 871.671 179.098 870.41 181.758C869.15 184.401 867.303 186.571 864.871 188.269C863.015 189.565 860.897 190.492 858.517 191.052C856.136 191.595 852.443 191.866 847.437 191.866H845.678H837.67ZM848.041 183.255H849.8C853.913 183.255 856.915 182.414 858.806 180.734C860.696 179.036 861.641 176.35 861.641 172.674C861.641 168.998 860.696 166.303 858.806 164.587C856.915 162.872 853.913 162.014 849.8 162.014H848.041V183.255ZM541.699 249.866H531.906L529.648 233.247C529.49 232.074 529.341 230.77 529.201 229.335C529.079 227.9 528.965 226.333 528.86 224.635C528.615 226.263 528.134 228.293 527.416 230.726C527.259 231.234 527.145 231.61 527.075 231.855L521.85 249.866H514.866L509.642 231.855C509.572 231.61 509.466 231.234 509.326 230.726C508.591 228.293 508.11 226.272 507.882 224.661C507.777 226.114 507.655 227.558 507.515 228.994C507.375 230.411 507.209 231.829 507.016 233.247L504.758 249.866H495.018L500.951 211.429H511.322L517.124 231.251C517.159 231.392 517.229 231.619 517.334 231.934C517.877 233.702 518.218 235.216 518.358 236.476C518.428 235.794 518.559 235.041 518.752 234.218C518.945 233.378 519.207 232.372 519.54 231.199L525.394 211.429H535.791L541.699 249.866ZM586.805 230.726C586.805 233.492 586.297 236.082 585.282 238.498C584.267 240.913 582.788 243.075 580.845 244.983C578.884 246.873 576.644 248.335 574.124 249.367C571.603 250.383 568.986 250.89 566.273 250.89C563.525 250.89 560.891 250.383 558.371 249.367C555.868 248.335 553.662 246.873 551.754 244.983C549.777 243.075 548.271 240.905 547.239 238.472C546.223 236.039 545.716 233.457 545.716 230.726C545.716 227.978 546.223 225.397 547.239 222.981C548.271 220.548 549.777 218.378 551.754 216.47C553.662 214.58 555.868 213.127 558.371 212.112C560.891 211.079 563.525 210.563 566.273 210.563C569.004 210.563 571.629 211.079 574.15 212.112C576.688 213.127 578.919 214.58 580.845 216.47C582.77 218.36 584.24 220.522 585.256 222.955C586.288 225.388 586.805 227.978 586.805 230.726ZM566.273 242.016C569.179 242.016 571.577 240.948 573.467 238.813C575.375 236.677 576.329 233.982 576.329 230.726C576.329 227.506 575.366 224.819 573.441 222.666C571.516 220.513 569.126 219.437 566.273 219.437C563.368 219.437 560.961 220.513 559.053 222.666C557.163 224.802 556.218 227.488 556.218 230.726C556.218 234.017 557.154 236.721 559.027 238.839C560.9 240.957 563.315 242.016 566.273 242.016ZM593.395 249.866V211.429H601.402C607.371 211.429 611.589 211.709 614.057 212.269C616.543 212.829 618.722 213.766 620.595 215.078C623.028 216.776 624.874 218.955 626.135 221.616C627.395 224.259 628.025 227.278 628.025 230.674C628.025 234.07 627.395 237.098 626.135 239.758C624.874 242.401 623.028 244.571 620.595 246.269C618.739 247.565 616.622 248.492 614.241 249.052C611.861 249.595 608.167 249.866 603.162 249.866H601.402H593.395ZM603.765 241.255H605.524C609.638 241.255 612.64 240.414 614.53 238.734C616.42 237.036 617.365 234.35 617.365 230.674C617.365 226.998 616.42 224.303 614.53 222.587C612.64 220.872 609.638 220.014 605.524 220.014H603.765V241.255ZM634.615 249.866V211.429H658.166V219.857H644.828V226.526H657.404V234.77H644.828V241.255H658.166V249.866H634.615ZM665.123 249.866V211.429H675.599V240.887H688.621V249.866H665.123ZM732.257 230.726C732.257 233.492 731.749 236.082 730.734 238.498C729.719 240.913 728.24 243.075 726.297 244.983C724.337 246.873 722.096 248.335 719.576 249.367C717.055 250.383 714.439 250.89 711.726 250.89C708.978 250.89 706.343 250.383 703.823 249.367C701.32 248.335 699.114 246.873 697.207 244.983C695.229 243.075 693.723 240.905 692.691 238.472C691.676 236.039 691.168 233.457 691.168 230.726C691.168 227.978 691.676 225.397 692.691 222.981C693.723 220.548 695.229 218.378 697.207 216.47C699.114 214.58 701.32 213.127 703.823 212.112C706.343 211.079 708.978 210.563 711.726 210.563C714.456 210.563 717.082 211.079 719.602 212.112C722.14 213.127 724.372 214.58 726.297 216.47C728.222 218.36 729.693 220.522 730.708 222.955C731.741 225.388 732.257 227.978 732.257 230.726ZM711.726 242.016C714.631 242.016 717.029 240.948 718.919 238.813C720.827 236.677 721.781 233.982 721.781 230.726C721.781 227.506 720.819 224.819 718.893 222.666C716.968 220.513 714.579 219.437 711.726 219.437C708.82 219.437 706.413 220.513 704.505 222.666C702.615 224.802 701.67 227.488 701.67 230.726C701.67 234.017 702.606 236.721 704.479 238.839C706.352 240.957 708.768 242.016 711.726 242.016Z" fill="#8D8D8D"/>
<defs>
<clipPath id="clip0_74_11562">
<rect width="358.31" height="358.31" fill="white" transform="translate(0 0.211426)"/>
</clipPath>
</defs>
</svg>
