<svg width="167" height="27" viewBox="0 0 167 27" fill="none" xmlns="http://www.w3.org/2000/svg">
<path d="M32.3862 22.5962H34.1309L33.4761 20.4736C33.4556 20.4092 33.4277 20.3052 33.3926 20.1616C33.3574 20.0181 33.312 19.8335 33.2563 19.6079C33.2183 19.7661 33.1802 19.917 33.1421 20.0605C33.1069 20.2041 33.0703 20.3418 33.0322 20.4736L32.3862 22.5962ZM29.9297 25L32.1489 18.5664H34.3462L36.5698 25H34.8252L34.5 23.8486H32.0083L31.6743 25H29.9297ZM39.4395 25V18.5664H40.7798C41.7788 18.5664 42.4849 18.6133 42.8979 18.707C43.314 18.8008 43.6787 18.9575 43.9922 19.1772C44.3994 19.4614 44.7085 19.8262 44.9194 20.2715C45.1304 20.7139 45.2358 21.2192 45.2358 21.7876C45.2358 22.356 45.1304 22.8628 44.9194 23.3081C44.7085 23.7505 44.3994 24.1138 43.9922 24.3979C43.6816 24.6147 43.3271 24.77 42.9287 24.8638C42.5303 24.9546 41.9121 25 41.0742 25H40.7798H39.4395ZM41.1753 23.5586H41.4697C42.1582 23.5586 42.6606 23.418 42.9771 23.1367C43.2935 22.8525 43.4517 22.4028 43.4517 21.7876C43.4517 21.1724 43.2935 20.7212 42.9771 20.4341C42.6606 20.147 42.1582 20.0034 41.4697 20.0034H41.1753V23.5586ZM55.9673 25H54.3281L53.9502 22.2183C53.9238 22.022 53.8989 21.8037 53.8755 21.5635C53.855 21.3232 53.8359 21.061 53.8184 20.7769C53.7773 21.0493 53.6968 21.3892 53.5767 21.7964C53.5503 21.8813 53.5312 21.9443 53.5195 21.9854L52.645 25H51.4761L50.6016 21.9854C50.5898 21.9443 50.5723 21.8813 50.5488 21.7964C50.4258 21.3892 50.3452 21.0508 50.3071 20.7812C50.2896 21.0244 50.269 21.2661 50.2456 21.5063C50.2222 21.7437 50.1943 21.981 50.1621 22.2183L49.7842 25H48.1538L49.147 18.5664H50.8828L51.854 21.8843C51.8599 21.9077 51.8716 21.9458 51.8892 21.9985C51.98 22.2944 52.0371 22.5479 52.0605 22.7588C52.0723 22.6445 52.0942 22.5186 52.1265 22.3809C52.1587 22.2402 52.2026 22.0718 52.2583 21.8755L53.2383 18.5664H54.9785L55.9673 25ZM59.2061 25V18.5664H60.9771V25H59.2061ZM64.6465 25V18.5664H66.3384L68.7686 21.8755C68.8154 21.9429 68.8916 22.0791 68.9971 22.2842C69.1055 22.4863 69.2241 22.728 69.353 23.0093C69.3179 22.7427 69.2915 22.5054 69.2739 22.2974C69.2593 22.0894 69.252 21.9048 69.252 21.7437V18.5664H70.9351V25H69.252L66.8218 21.6777C66.772 21.6104 66.6929 21.4756 66.5845 21.2734C66.479 21.0684 66.3633 20.8281 66.2373 20.5527C66.2725 20.8223 66.2974 21.061 66.312 21.269C66.3296 21.4771 66.3384 21.6616 66.3384 21.8228V25H64.6465ZM74.6133 25V18.5664H76.3843V25H74.6133ZM80.3394 22.9214C80.6001 23.2173 80.8564 23.4385 81.1084 23.585C81.3633 23.7314 81.6167 23.8047 81.8687 23.8047C82.103 23.8047 82.2949 23.7417 82.4443 23.6157C82.5967 23.4897 82.6729 23.3301 82.6729 23.1367C82.6729 22.9229 82.6069 22.7588 82.4751 22.6445C82.3462 22.5273 82.0518 22.4072 81.5918 22.2842C80.9619 22.1143 80.5166 21.8931 80.2559 21.6206C79.9951 21.3481 79.8647 20.9746 79.8647 20.5C79.8647 19.8848 80.0698 19.3838 80.48 18.9971C80.8931 18.6074 81.4277 18.4126 82.084 18.4126C82.4385 18.4126 82.7739 18.4609 83.0903 18.5576C83.4097 18.6514 83.7114 18.7949 83.9956 18.9883L83.4463 20.2495C83.2471 20.0796 83.042 19.9521 82.8311 19.8672C82.623 19.7793 82.4165 19.7354 82.2114 19.7354C82.0005 19.7354 81.8291 19.7866 81.6973 19.8892C81.5654 19.9888 81.4995 20.1177 81.4995 20.2759C81.4995 20.437 81.5566 20.5659 81.6709 20.6626C81.7881 20.7593 82.0122 20.8516 82.3433 20.9395L82.4224 20.9614C83.1372 21.1548 83.6074 21.3672 83.833 21.5986C83.9854 21.7568 84.1011 21.9473 84.1802 22.1699C84.2593 22.3896 84.2988 22.6343 84.2988 22.9038C84.2988 23.5864 84.0747 24.1357 83.6265 24.5518C83.1782 24.9648 82.5806 25.1714 81.8335 25.1714C81.3853 25.1714 80.9766 25.0952 80.6074 24.9429C80.2412 24.7905 79.8882 24.5518 79.5483 24.2266L80.3394 22.9214ZM88.4604 25V20.0869H87.019V18.5664H91.6553V20.0869H90.2139V25H88.4604ZM94.7666 25V18.5664H96.5991C97.3169 18.5664 97.8164 18.6001 98.0977 18.6675C98.3818 18.7319 98.6265 18.8418 98.8315 18.9971C99.063 19.1729 99.2402 19.397 99.3633 19.6694C99.4893 19.9419 99.5522 20.2422 99.5522 20.5703C99.5522 21.0684 99.4292 21.4741 99.1831 21.7876C98.9399 22.0981 98.584 22.3047 98.1152 22.4072L99.8687 25H97.8867L96.4102 22.4819V25H94.7666ZM96.4102 21.6074H96.7354C97.1133 21.6074 97.3887 21.543 97.5615 21.4141C97.7373 21.2852 97.8252 21.083 97.8252 20.8076C97.8252 20.4854 97.7432 20.2568 97.5791 20.1221C97.418 19.9844 97.1455 19.9155 96.7617 19.9155H96.4102V21.6074ZM104.492 22.5962H106.236L105.582 20.4736C105.561 20.4092 105.533 20.3052 105.498 20.1616C105.463 20.0181 105.417 19.8335 105.362 19.6079C105.324 19.7661 105.286 19.917 105.248 20.0605C105.212 20.2041 105.176 20.3418 105.138 20.4736L104.492 22.5962ZM102.035 25L104.254 18.5664H106.452L108.675 25H106.931L106.605 23.8486H104.114L103.78 25H102.035ZM111.545 25V18.5664H112.885C113.884 18.5664 114.59 18.6133 115.003 18.707C115.419 18.8008 115.784 18.9575 116.098 19.1772C116.505 19.4614 116.814 19.8262 117.025 20.2715C117.236 20.7139 117.341 21.2192 117.341 21.7876C117.341 22.356 117.236 22.8628 117.025 23.3081C116.814 23.7505 116.505 24.1138 116.098 24.3979C115.787 24.6147 115.433 24.77 115.034 24.8638C114.636 24.9546 114.018 25 113.18 25H112.885H111.545ZM113.281 23.5586H113.575C114.264 23.5586 114.766 23.418 115.083 23.1367C115.399 22.8525 115.557 22.4028 115.557 21.7876C115.557 21.1724 115.399 20.7212 115.083 20.4341C114.766 20.147 114.264 20.0034 113.575 20.0034H113.281V23.5586ZM127.299 21.7964C127.299 22.2593 127.214 22.6929 127.044 23.0972C126.875 23.5015 126.627 23.8633 126.302 24.1826C125.974 24.499 125.599 24.7437 125.177 24.9165C124.755 25.0864 124.317 25.1714 123.863 25.1714C123.403 25.1714 122.962 25.0864 122.54 24.9165C122.121 24.7437 121.752 24.499 121.433 24.1826C121.102 23.8633 120.85 23.5 120.677 23.0928C120.507 22.6855 120.422 22.2534 120.422 21.7964C120.422 21.3364 120.507 20.9043 120.677 20.5C120.85 20.0928 121.102 19.7295 121.433 19.4102C121.752 19.0938 122.121 18.8506 122.54 18.6807C122.962 18.5078 123.403 18.4214 123.863 18.4214C124.32 18.4214 124.759 18.5078 125.181 18.6807C125.606 18.8506 125.979 19.0938 126.302 19.4102C126.624 19.7266 126.87 20.0884 127.04 20.4956C127.213 20.9028 127.299 21.3364 127.299 21.7964ZM123.863 23.686C124.349 23.686 124.75 23.5073 125.067 23.1499C125.386 22.7925 125.546 22.3413 125.546 21.7964C125.546 21.2573 125.385 20.8076 125.062 20.4473C124.74 20.0869 124.34 19.9067 123.863 19.9067C123.376 19.9067 122.974 20.0869 122.654 20.4473C122.338 20.8047 122.18 21.2544 122.18 21.7964C122.18 22.3472 122.336 22.7998 122.65 23.1543C122.963 23.5088 123.368 23.686 123.863 23.686ZM130.652 25V18.5664H132.485C133.203 18.5664 133.702 18.6001 133.983 18.6675C134.268 18.7319 134.512 18.8418 134.717 18.9971C134.949 19.1729 135.126 19.397 135.249 19.6694C135.375 19.9419 135.438 20.2422 135.438 20.5703C135.438 21.0684 135.315 21.4741 135.069 21.7876C134.826 22.0981 134.47 22.3047 134.001 22.4072L135.754 25H133.772L132.296 22.4819V25H130.652ZM132.296 21.6074H132.621C132.999 21.6074 133.274 21.543 133.447 21.4141C133.623 21.2852 133.711 21.083 133.711 20.8076C133.711 20.4854 133.629 20.2568 133.465 20.1221C133.304 19.9844 133.031 19.9155 132.647 19.9155H132.296V21.6074Z" fill="#8D8D8D"/>
<path d="M1.00488 0.992188H3.72559V5.85938C3.72559 6.57487 3.74382 7.08984 3.78027 7.4043C3.81673 7.71419 3.87826 7.97396 3.96484 8.18359C4.06966 8.4388 4.25195 8.63477 4.51172 8.77148C4.77148 8.90365 5.08822 8.96973 5.46191 8.96973C5.83561 8.96973 6.15007 8.90365 6.40527 8.77148C6.66504 8.63477 6.84961 8.4388 6.95898 8.18359C7.04557 7.97396 7.1071 7.71419 7.14355 7.4043C7.18001 7.08984 7.19824 6.57487 7.19824 5.85938V5.17578V0.992188H9.91211V6.2832C9.91211 7.38151 9.84603 8.19271 9.71387 8.7168C9.58171 9.23633 9.3584 9.68066 9.04395 10.0498C8.70215 10.4554 8.23275 10.7607 7.63574 10.9658C7.03874 11.1663 6.31413 11.2666 5.46191 11.2666C4.60514 11.2666 3.87826 11.1663 3.28125 10.9658C2.6888 10.7607 2.2194 10.4554 1.87305 10.0498C1.56315 9.68066 1.33984 9.23633 1.20312 8.7168C1.07096 8.19271 1.00488 7.38151 1.00488 6.2832V5.24414V0.992188ZM11.9902 11V0.992188H14.6221L18.4023 6.13965C18.4753 6.24447 18.5938 6.45638 18.7578 6.77539C18.9264 7.08984 19.111 7.46582 19.3115 7.90332C19.2568 7.48861 19.2158 7.11947 19.1885 6.7959C19.1657 6.47233 19.1543 6.18522 19.1543 5.93457V0.992188H21.7725V11H19.1543L15.374 5.83203C15.2965 5.72721 15.1735 5.51758 15.0049 5.20312C14.8408 4.88411 14.6608 4.51042 14.4648 4.08203C14.5195 4.5013 14.5583 4.87272 14.5811 5.19629C14.6084 5.51986 14.6221 5.80697 14.6221 6.05762V11H11.9902ZM23.9941 11V0.992188H26.749V11H23.9941ZM31.8213 11L27.624 0.992188H30.5225L32.5254 6.59082C32.5436 6.65007 32.5801 6.79362 32.6348 7.02148C32.694 7.24479 32.7692 7.54785 32.8604 7.93066C32.9333 7.62533 33.0016 7.34961 33.0654 7.10352C33.1292 6.85742 33.1771 6.68652 33.209 6.59082L35.1982 0.992188H38.0967L33.8994 11H31.8213ZM38.9102 11V0.992188H45.042V3.18652H41.5693V4.92285H44.8438V7.06934H41.5693V8.75781H45.042V11H38.9102ZM46.8535 11V0.992188H49.7041C50.8206 0.992188 51.5977 1.0446 52.0352 1.14941C52.4772 1.24967 52.8577 1.42057 53.1768 1.66211C53.5368 1.93555 53.8125 2.28418 54.0039 2.70801C54.1999 3.13184 54.2979 3.59896 54.2979 4.10938C54.2979 4.88411 54.1064 5.5153 53.7236 6.00293C53.3454 6.486 52.7917 6.80729 52.0625 6.9668L54.79 11H51.707L49.4102 7.08301V11H46.8535ZM49.4102 5.72266H49.916C50.5039 5.72266 50.9323 5.6224 51.2012 5.42188C51.4746 5.22135 51.6113 4.9069 51.6113 4.47852C51.6113 3.97721 51.4837 3.62174 51.2285 3.41211C50.9779 3.19792 50.554 3.09082 49.957 3.09082H49.4102V5.72266ZM56.2803 7.7666C56.6859 8.22689 57.0846 8.57096 57.4766 8.79883C57.873 9.02669 58.2673 9.14062 58.6592 9.14062C59.0238 9.14062 59.3223 9.04264 59.5547 8.84668C59.7917 8.65072 59.9102 8.40234 59.9102 8.10156C59.9102 7.76888 59.8076 7.51367 59.6025 7.33594C59.402 7.15365 58.944 6.9668 58.2285 6.77539C57.2487 6.51107 56.556 6.16699 56.1504 5.74316C55.7448 5.31934 55.542 4.73828 55.542 4C55.542 3.04297 55.861 2.26367 56.499 1.66211C57.1416 1.05599 57.9733 0.75293 58.9941 0.75293C59.5456 0.75293 60.0674 0.828125 60.5596 0.978516C61.0563 1.12435 61.5257 1.34766 61.9678 1.64844L61.1133 3.61035C60.8034 3.34603 60.4844 3.14779 60.1562 3.01562C59.8327 2.87891 59.5114 2.81055 59.1924 2.81055C58.8643 2.81055 58.5977 2.8903 58.3926 3.0498C58.1875 3.20475 58.085 3.40527 58.085 3.65137C58.085 3.90202 58.1738 4.10254 58.3516 4.25293C58.5339 4.40332 58.8825 4.54688 59.3975 4.68359L59.5205 4.71777C60.6325 5.01855 61.3639 5.34896 61.7148 5.70898C61.9518 5.95508 62.1318 6.2513 62.2549 6.59766C62.3779 6.93945 62.4395 7.31999 62.4395 7.73926C62.4395 8.80111 62.0908 9.6556 61.3936 10.3027C60.6963 10.9453 59.7666 11.2666 58.6045 11.2666C57.9072 11.2666 57.2715 11.1481 56.6973 10.9111C56.1276 10.6742 55.5785 10.3027 55.0498 9.79688L56.2803 7.7666ZM64.0391 11V0.992188H66.7939V11H64.0391ZM69.002 11V0.992188H71.0869C72.641 0.992188 73.7393 1.0651 74.3818 1.21094C75.029 1.35677 75.5964 1.60059 76.084 1.94238C76.7174 2.38444 77.1982 2.95182 77.5264 3.64453C77.8545 4.33268 78.0186 5.11882 78.0186 6.00293C78.0186 6.88704 77.8545 7.67546 77.5264 8.36816C77.1982 9.05632 76.7174 9.62142 76.084 10.0635C75.6009 10.4007 75.0495 10.6423 74.4297 10.7881C73.8099 10.9294 72.8483 11 71.5449 11H71.0869H69.002ZM71.7021 8.75781H72.1602C73.2311 8.75781 74.0127 8.53906 74.5049 8.10156C74.9971 7.65951 75.2432 6.95996 75.2432 6.00293C75.2432 5.0459 74.9971 4.34408 74.5049 3.89746C74.0127 3.45085 73.2311 3.22754 72.1602 3.22754H71.7021V8.75781ZM82.1338 7.26074H84.8477L83.8291 3.95898C83.7972 3.85872 83.7539 3.69694 83.6992 3.47363C83.6445 3.25033 83.5739 2.96322 83.4873 2.6123C83.4281 2.8584 83.3688 3.0931 83.3096 3.31641C83.2549 3.53971 83.1979 3.75391 83.1387 3.95898L82.1338 7.26074ZM78.3125 11L81.7646 0.992188H85.1826L88.6416 11H85.9277L85.4219 9.20898H81.5459L81.0264 11H78.3125ZM89.6055 11V0.992188H91.6904C93.2445 0.992188 94.3428 1.0651 94.9854 1.21094C95.6325 1.35677 96.1999 1.60059 96.6875 1.94238C97.321 2.38444 97.8018 2.95182 98.1299 3.64453C98.458 4.33268 98.6221 5.11882 98.6221 6.00293C98.6221 6.88704 98.458 7.67546 98.1299 8.36816C97.8018 9.05632 97.321 9.62142 96.6875 10.0635C96.2044 10.4007 95.653 10.6423 95.0332 10.7881C94.4134 10.9294 93.4518 11 92.1484 11H91.6904H89.6055ZM92.3057 8.75781H92.7637C93.8346 8.75781 94.6162 8.53906 95.1084 8.10156C95.6006 7.65951 95.8467 6.95996 95.8467 6.00293C95.8467 5.0459 95.6006 4.34408 95.1084 3.89746C94.6162 3.45085 93.8346 3.22754 92.7637 3.22754H92.3057V8.75781ZM116.204 11H113.654L113.066 6.67285C113.025 6.36751 112.987 6.02799 112.95 5.6543C112.918 5.2806 112.889 4.87272 112.861 4.43066C112.798 4.85449 112.672 5.38314 112.485 6.0166C112.444 6.14876 112.415 6.24674 112.396 6.31055L111.036 11H109.218L107.857 6.31055C107.839 6.24674 107.812 6.14876 107.775 6.0166C107.584 5.38314 107.459 4.85677 107.399 4.4375C107.372 4.81576 107.34 5.19173 107.304 5.56543C107.267 5.93457 107.224 6.30371 107.174 6.67285L106.586 11H104.05L105.595 0.992188H108.295L109.806 6.15332C109.815 6.18978 109.833 6.24902 109.86 6.33105C110.002 6.79134 110.09 7.18555 110.127 7.51367C110.145 7.33594 110.179 7.13997 110.229 6.92578C110.28 6.70703 110.348 6.44499 110.435 6.13965L111.959 0.992188H114.666L116.204 11ZM127.948 6.0166C127.948 6.73665 127.816 7.41113 127.552 8.04004C127.287 8.66895 126.902 9.23177 126.396 9.72852C125.886 10.2207 125.303 10.6012 124.646 10.8701C123.99 11.1344 123.309 11.2666 122.603 11.2666C121.887 11.2666 121.201 11.1344 120.545 10.8701C119.893 10.6012 119.319 10.2207 118.822 9.72852C118.307 9.23177 117.915 8.66667 117.646 8.0332C117.382 7.39974 117.25 6.72754 117.25 6.0166C117.25 5.30111 117.382 4.62891 117.646 4C117.915 3.36654 118.307 2.80143 118.822 2.30469C119.319 1.8125 119.893 1.43424 120.545 1.16992C121.201 0.901042 121.887 0.766602 122.603 0.766602C123.313 0.766602 123.997 0.901042 124.653 1.16992C125.314 1.43424 125.895 1.8125 126.396 2.30469C126.898 2.79688 127.281 3.3597 127.545 3.99316C127.814 4.62663 127.948 5.30111 127.948 6.0166ZM122.603 8.95605C123.359 8.95605 123.983 8.67806 124.476 8.12207C124.972 7.56608 125.221 6.86426 125.221 6.0166C125.221 5.17806 124.97 4.47852 124.469 3.91797C123.967 3.35742 123.345 3.07715 122.603 3.07715C121.846 3.07715 121.219 3.35742 120.723 3.91797C120.23 4.47396 119.984 5.1735 119.984 6.0166C119.984 6.87337 120.228 7.57747 120.716 8.12891C121.203 8.68034 121.832 8.95605 122.603 8.95605ZM129.664 11V0.992188H131.749C133.303 0.992188 134.401 1.0651 135.044 1.21094C135.691 1.35677 136.258 1.60059 136.746 1.94238C137.38 2.38444 137.86 2.95182 138.188 3.64453C138.517 4.33268 138.681 5.11882 138.681 6.00293C138.681 6.88704 138.517 7.67546 138.188 8.36816C137.86 9.05632 137.38 9.62142 136.746 10.0635C136.263 10.4007 135.712 10.6423 135.092 10.7881C134.472 10.9294 133.51 11 132.207 11H131.749H129.664ZM132.364 8.75781H132.822C133.893 8.75781 134.675 8.53906 135.167 8.10156C135.659 7.65951 135.905 6.95996 135.905 6.00293C135.905 5.0459 135.659 4.34408 135.167 3.89746C134.675 3.45085 133.893 3.22754 132.822 3.22754H132.364V8.75781ZM140.396 11V0.992188H146.528V3.18652H143.056V4.92285H146.33V7.06934H143.056V8.75781H146.528V11H140.396ZM148.34 11V0.992188H151.067V8.66211H154.458V11H148.34ZM165.819 6.0166C165.819 6.73665 165.687 7.41113 165.423 8.04004C165.159 8.66895 164.773 9.23177 164.268 9.72852C163.757 10.2207 163.174 10.6012 162.518 10.8701C161.861 11.1344 161.18 11.2666 160.474 11.2666C159.758 11.2666 159.072 11.1344 158.416 10.8701C157.764 10.6012 157.19 10.2207 156.693 9.72852C156.178 9.23177 155.786 8.66667 155.518 8.0332C155.253 7.39974 155.121 6.72754 155.121 6.0166C155.121 5.30111 155.253 4.62891 155.518 4C155.786 3.36654 156.178 2.80143 156.693 2.30469C157.19 1.8125 157.764 1.43424 158.416 1.16992C159.072 0.901042 159.758 0.766602 160.474 0.766602C161.185 0.766602 161.868 0.901042 162.524 1.16992C163.185 1.43424 163.766 1.8125 164.268 2.30469C164.769 2.79688 165.152 3.3597 165.416 3.99316C165.685 4.62663 165.819 5.30111 165.819 6.0166ZM160.474 8.95605C161.23 8.95605 161.854 8.67806 162.347 8.12207C162.843 7.56608 163.092 6.86426 163.092 6.0166C163.092 5.17806 162.841 4.47852 162.34 3.91797C161.839 3.35742 161.216 3.07715 160.474 3.07715C159.717 3.07715 159.09 3.35742 158.594 3.91797C158.102 4.47396 157.855 5.1735 157.855 6.0166C157.855 6.87337 158.099 7.57747 158.587 8.12891C159.075 8.68034 159.703 8.95605 160.474 8.95605Z" fill="#8D8D8D"/>
</svg>
