<svg width="609" height="582" viewBox="0 0 609 582" fill="none" xmlns="http://www.w3.org/2000/svg">
<mask id="mask0_124_626" style="mask-type:alpha" maskUnits="userSpaceOnUse" x="102" y="75" width="507" height="507">
<rect x="102" y="75.0005" width="506.25" height="506.25" rx="101.25" fill="white"/>
</mask>
<g mask="url(#mask0_124_626)">
<path d="M196.5 453C196.5 434.36 211.611 419.25 230.25 419.25H250.5C269.14 419.25 284.25 434.36 284.25 453V581.25H196.5V453Z" fill="#00086E"/>
<path d="M324.75 392.25C324.75 373.61 339.86 358.5 358.5 358.5H378.75C397.39 358.5 412.5 373.61 412.5 392.25V581.25H324.75V392.25Z" fill="#00086E"/>
<path d="M453 257.25C453 238.611 468.11 223.5 486.75 223.5H507C525.639 223.5 540.75 238.611 540.75 257.25V581.25H453V257.25Z" fill="#00086E"/>
<circle cx="149.25" cy="183.001" r="209.25" fill="#4769E7"/>
<circle cx="331.5" cy="243.751" r="81" fill="#80AAFE"/>
</g>
</svg>
