<svg width="1265" height="583" viewBox="0 0 1265 583" fill="none" xmlns="http://www.w3.org/2000/svg">
<path d="M696.732 453.591C696.732 434.923 711.866 419.789 730.535 419.789H750.817C769.486 419.789 784.62 434.923 784.62 453.591V582.042H696.732V453.591Z" fill="#00086E"/>
<path d="M825.183 345.422C825.183 326.754 840.317 311.62 858.986 311.62H879.268C897.936 311.62 913.07 326.754 913.07 345.422V582.042H825.183V345.422Z" fill="#00086E"/>
<path d="M953.634 196.69C953.634 178.021 968.768 162.887 987.437 162.887H1007.72C1026.39 162.887 1041.52 178.021 1041.52 196.69V582.042H953.634V196.69Z" fill="#00086E"/>
<mask id="mask0_104_3409" style="mask-type:alpha" maskUnits="userSpaceOnUse" x="68" y="75" width="1082" height="508">
<rect x="68" y="75" width="1081.69" height="507.042" rx="101.408" fill="white"/>
</mask>
<g mask="url(#mask0_104_3409)">
<circle cx="243.775" cy="223.732" r="243.38" fill="#4769E7"/>
<circle cx="466.873" cy="372.465" r="114.93" fill="#80AAFE"/>
</g>
</svg>
