<svg width="82" height="82" viewBox="0 0 82 82" fill="none" xmlns="http://www.w3.org/2000/svg">
<path fill-rule="evenodd" clip-rule="evenodd" d="M46.3289 14.0848C40.6433 12.7512 34.7261 12.7512 29.0405 14.0848C21.5778 15.8353 15.7509 21.6623 14.0004 29.1249C12.6667 34.8106 12.6667 40.7277 14.0004 46.4134C15.7509 53.8761 21.5778 59.703 29.0405 61.4535C34.7261 62.7872 40.6433 62.7872 46.3289 61.4535C53.7916 59.703 59.6185 53.8761 61.369 46.4134C62.7027 40.7277 62.7027 34.8106 61.369 29.125C59.6185 21.6623 53.7916 15.8353 46.3289 14.0848ZM27.8826 9.1484C34.3298 7.63608 41.0396 7.63608 47.4868 9.1484C56.8244 11.3387 64.1152 18.6295 66.3055 27.967C67.8178 34.4143 67.8178 41.1241 66.3055 47.5713C65.4111 51.3841 63.6663 54.8557 61.279 57.7781L73.1026 69.6018C74.0927 70.5918 74.0927 72.197 73.1026 73.1871C72.1126 74.1772 70.5074 74.1772 69.5173 73.1871L57.6936 61.3634C54.7712 63.7508 51.2997 65.4956 47.4868 66.3899C41.0396 67.9023 34.3298 67.9023 27.8826 66.3899C18.545 64.1997 11.2542 56.9089 9.06393 47.5713C7.55161 41.1241 7.55161 34.4143 9.06393 27.967C11.2542 18.6295 18.545 11.3387 27.8826 9.1484Z" fill="#00086E"/>
</svg>
